%FSLAX44Y44*%
%MOMM*%
G71*
G01*
G75*
G04 Layer_Color=65535*
%ADD10C,0.3810*%
%ADD11C,0.2540*%
%ADD12C,0.6350*%
%ADD13R,1.2700X4.2000*%
%ADD14R,1.3500X4.7000*%
%ADD15R,2.1000X1.6000*%
%ADD16R,0.4000X1.3500*%
%ADD17R,1.9000X1.9000*%
%ADD18R,1.8000X1.9000*%
%ADD19R,0.9000X1.9000*%
%ADD20R,3.2000X1.9000*%
%ADD21R,1.5240X1.0160*%
%ADD22R,1.0160X1.5240*%
%ADD23R,1.1000X1.0000*%
%ADD24R,0.9100X1.2200*%
%ADD25R,0.8000X0.8000*%
%ADD26R,0.8000X0.8000*%
%ADD27R,1.0000X1.3500*%
%ADD28R,0.3700X0.4300*%
%ADD29R,0.3700X0.3000*%
%ADD30R,0.6000X1.6000*%
%ADD31O,1.9000X0.5500*%
%ADD32O,0.5500X1.9000*%
%ADD33C,1.5000*%
%ADD34R,1.5000X1.5000*%
%ADD35R,1.8500X1.8500*%
%ADD36C,1.8500*%
%ADD37R,1.5000X1.5000*%
%ADD38R,1.0000X1.5240*%
%ADD39C,1.7780*%
%ADD40C,1.2700*%
%ADD41C,0.2500*%
%ADD42C,0.6000*%
%ADD43C,0.2500*%
%ADD44R,0.1000X0.1000*%
%ADD45C,0.0500*%
%ADD46C,0.2000*%
%ADD47C,1.0000*%
D11*
X422701Y546795D02*
G03*
X428418Y541948I3935J-1154D01*
G01*
X417889Y549773D02*
G03*
X430289Y537752I8611J-3523D01*
G01*
X415275Y553195D02*
G03*
X432095Y533222I11725J-7195D01*
G01*
X616975Y556305D02*
G03*
X600155Y576278I-11725J7195D01*
G01*
X614361Y559727D02*
G03*
X601961Y571748I-8611J3523D01*
G01*
X609549Y562705D02*
G03*
X603832Y567552I-3935J1154D01*
G01*
X404060Y52740D02*
X505060D01*
Y2240D02*
Y52740D01*
X404060Y2240D02*
X505060D01*
X404060D02*
Y52740D01*
X85320Y258060D02*
X234720D01*
Y503960D01*
X85320D02*
X234720D01*
X85320Y258060D02*
Y503960D01*
X363340Y48140D02*
X378340D01*
X363340Y16890D02*
Y48140D01*
Y16890D02*
X378340D01*
Y48140D01*
X94100Y205860D02*
Y220860D01*
Y205860D02*
X125350D01*
Y220860D01*
X94100D02*
X125350D01*
X94100Y180460D02*
Y195460D01*
Y180460D02*
X125350D01*
Y195460D01*
X94100D02*
X125350D01*
X200700Y109180D02*
X235700D01*
X200700Y90680D02*
Y109180D01*
Y90680D02*
X235700D01*
X200700D02*
Y109180D01*
X235700Y90680D02*
Y109180D01*
X200700Y53300D02*
X235700D01*
X200700Y34800D02*
Y53300D01*
Y34800D02*
X235700D01*
X200700D02*
Y53300D01*
X235700Y34800D02*
Y53300D01*
X200700Y27900D02*
X235700D01*
X200700Y9400D02*
Y27900D01*
Y9400D02*
X235700D01*
X200700D02*
Y27900D01*
X235700Y9400D02*
Y27900D01*
X281980D02*
X316980D01*
X281980Y9400D02*
Y27900D01*
Y9400D02*
X316980D01*
X281980D02*
Y27900D01*
X316980Y9400D02*
Y27900D01*
X815380Y525740D02*
X850380D01*
X815380Y507240D02*
Y525740D01*
Y507240D02*
X850380D01*
X815380D02*
Y525740D01*
X850380Y507240D02*
Y525740D01*
X378980Y190540D02*
X413980D01*
Y209040D01*
X378980D02*
X413980D01*
Y190540D02*
Y209040D01*
X378980Y190540D02*
Y209040D01*
X815380Y454620D02*
X850380D01*
X815380Y436120D02*
Y454620D01*
Y436120D02*
X850380D01*
X815380D02*
Y454620D01*
X850380Y436120D02*
Y454620D01*
X815860Y388660D02*
X850860D01*
Y407160D01*
X815860D02*
X850860D01*
Y388660D02*
Y407160D01*
X815860Y388660D02*
Y407160D01*
X115657Y570235D02*
X110578D01*
X113118D01*
Y557539D01*
X110578Y555000D01*
X108039D01*
X105500Y557539D01*
X120735Y555000D02*
X125813D01*
X123274D01*
Y570235D01*
X120735Y567696D01*
X416560Y256535D02*
Y241300D01*
X424178D01*
X426717Y243839D01*
Y253996D01*
X424178Y256535D01*
X416560D01*
X515500Y26985D02*
Y11750D01*
X523117D01*
X525657Y14289D01*
Y16828D01*
X523117Y19368D01*
X515500D01*
X523117D01*
X525657Y21907D01*
Y24446D01*
X523117Y26985D01*
X515500D01*
X342392Y550159D02*
Y537463D01*
X344931Y534924D01*
X350009D01*
X352549Y537463D01*
Y550159D01*
X365245Y534924D02*
Y550159D01*
X357627Y542542D01*
X367784D01*
X65151Y549524D02*
Y536828D01*
X67690Y534289D01*
X72769D01*
X75308Y536828D01*
Y549524D01*
X90543Y534289D02*
X80386D01*
X90543Y544446D01*
Y546985D01*
X88004Y549524D01*
X82925D01*
X80386Y546985D01*
X93977Y78736D02*
X91438Y81275D01*
X86359D01*
X83820Y78736D01*
Y68579D01*
X86359Y66040D01*
X91438D01*
X93977Y68579D01*
X99055Y66040D02*
X104133D01*
X101594D01*
Y81275D01*
X99055Y78736D01*
X91437Y55876D02*
X88897Y58415D01*
X83819D01*
X81280Y55876D01*
Y45719D01*
X83819Y43180D01*
X88897D01*
X91437Y45719D01*
X106672Y43180D02*
X96515D01*
X106672Y53337D01*
Y55876D01*
X104133Y58415D01*
X99054D01*
X96515Y55876D01*
X868677Y426716D02*
X866137Y429255D01*
X861059D01*
X858520Y426716D01*
Y416559D01*
X861059Y414020D01*
X866137D01*
X868677Y416559D01*
X881373Y414020D02*
Y429255D01*
X873755Y421637D01*
X883912D01*
X359157Y93196D02*
X356618Y95735D01*
X351539D01*
X349000Y93196D01*
Y83039D01*
X351539Y80500D01*
X356618D01*
X359157Y83039D01*
X374392Y95735D02*
X364235D01*
Y88118D01*
X369313Y90657D01*
X371853D01*
X374392Y88118D01*
Y83039D01*
X371853Y80500D01*
X366774D01*
X364235Y83039D01*
X359907Y115696D02*
X357368Y118235D01*
X352289D01*
X349750Y115696D01*
Y105539D01*
X352289Y103000D01*
X357368D01*
X359907Y105539D01*
X375142Y118235D02*
X370063Y115696D01*
X364985Y110618D01*
Y105539D01*
X367524Y103000D01*
X372603D01*
X375142Y105539D01*
Y108078D01*
X372603Y110618D01*
X364985D01*
X361157Y136696D02*
X358618Y139235D01*
X353539D01*
X351000Y136696D01*
Y126539D01*
X353539Y124000D01*
X358618D01*
X361157Y126539D01*
X366235Y139235D02*
X376392D01*
Y136696D01*
X366235Y126539D01*
Y124000D01*
X868677Y495296D02*
X866137Y497835D01*
X861059D01*
X858520Y495296D01*
Y485139D01*
X861059Y482600D01*
X866137D01*
X868677Y485139D01*
X873755Y495296D02*
X876294Y497835D01*
X881373D01*
X883912Y495296D01*
Y492757D01*
X881373Y490218D01*
X883912Y487678D01*
Y485139D01*
X881373Y482600D01*
X876294D01*
X873755Y485139D01*
Y487678D01*
X876294Y490218D01*
X873755Y492757D01*
Y495296D01*
X876294Y490218D02*
X881373D01*
X360677Y157476D02*
X358138Y160015D01*
X353059D01*
X350520Y157476D01*
Y147319D01*
X353059Y144780D01*
X358138D01*
X360677Y147319D01*
X365755D02*
X368294Y144780D01*
X373373D01*
X375912Y147319D01*
Y157476D01*
X373373Y160015D01*
X368294D01*
X365755Y157476D01*
Y154937D01*
X368294Y152397D01*
X375912D01*
X347977Y180336D02*
X345438Y182875D01*
X340359D01*
X337820Y180336D01*
Y170179D01*
X340359Y167640D01*
X345438D01*
X347977Y170179D01*
X353055Y167640D02*
X358133D01*
X355594D01*
Y182875D01*
X353055Y180336D01*
X365751D02*
X368290Y182875D01*
X373368D01*
X375908Y180336D01*
Y170179D01*
X373368Y167640D01*
X368290D01*
X365751Y170179D01*
Y180336D01*
X863597Y472436D02*
X861058Y474975D01*
X855979D01*
X853440Y472436D01*
Y462279D01*
X855979Y459740D01*
X861058D01*
X863597Y462279D01*
X868675Y459740D02*
X873753D01*
X871214D01*
Y474975D01*
X868675Y472436D01*
X881371Y459740D02*
X886449D01*
X883910D01*
Y474975D01*
X881371Y472436D01*
X160020Y78735D02*
Y63500D01*
X167638D01*
X170177Y66039D01*
Y76196D01*
X167638Y78735D01*
X160020D01*
X175255Y63500D02*
X180333D01*
X177794D01*
Y78735D01*
X175255Y76196D01*
X328250Y62735D02*
Y47500D01*
X335868D01*
X338407Y50039D01*
Y60196D01*
X335868Y62735D01*
X328250D01*
X353642Y47500D02*
X343485D01*
X353642Y57657D01*
Y60196D01*
X351103Y62735D01*
X346024D01*
X343485Y60196D01*
X60960Y220975D02*
Y205740D01*
X68577D01*
X71117Y208279D01*
Y218436D01*
X68577Y220975D01*
X60960D01*
X76195Y218436D02*
X78734Y220975D01*
X83813D01*
X86352Y218436D01*
Y215897D01*
X83813Y213358D01*
X81273D01*
X83813D01*
X86352Y210818D01*
Y208279D01*
X83813Y205740D01*
X78734D01*
X76195Y208279D01*
X60960Y195575D02*
Y180340D01*
X68577D01*
X71117Y182879D01*
Y193036D01*
X68577Y195575D01*
X60960D01*
X83813Y180340D02*
Y195575D01*
X76195Y187957D01*
X86352D01*
X9144Y173736D02*
Y188971D01*
X16761D01*
X19301Y186432D01*
Y181353D01*
X16761Y178814D01*
X9144D01*
X24379Y188971D02*
Y173736D01*
Y178814D01*
X34536Y188971D01*
X26918Y181353D01*
X34536Y173736D01*
X39614D02*
X44693D01*
X42153D01*
Y188971D01*
X39614Y186432D01*
X708660Y182880D02*
Y193037D01*
X713738Y198115D01*
X718817Y193037D01*
Y182880D01*
Y190497D01*
X708660D01*
X19580Y512500D02*
Y527735D01*
X27197D01*
X29737Y525196D01*
Y520117D01*
X27197Y517578D01*
X19580D01*
X42433Y512500D02*
Y527735D01*
X34815Y520117D01*
X44972D01*
X288544Y514096D02*
Y529331D01*
X296161D01*
X298701Y526792D01*
Y521713D01*
X296161Y519174D01*
X288544D01*
X313936Y529331D02*
X303779D01*
Y521713D01*
X308857Y524253D01*
X311397D01*
X313936Y521713D01*
Y516635D01*
X311397Y514096D01*
X306318D01*
X303779Y516635D01*
X756917Y253996D02*
X754378Y256535D01*
X749299D01*
X746760Y253996D01*
Y243839D01*
X749299Y241300D01*
X754378D01*
X756917Y243839D01*
X761995Y241300D02*
X772152Y251457D01*
X787387Y256535D02*
X777230D01*
Y241300D01*
X787387D01*
X777230Y248918D02*
X782309D01*
X392750Y75235D02*
Y62539D01*
X395289Y60000D01*
X400368D01*
X402907Y62539D01*
Y75235D01*
X418142Y72696D02*
X415603Y75235D01*
X410524D01*
X407985Y72696D01*
Y70157D01*
X410524Y67618D01*
X415603D01*
X418142Y65078D01*
Y62539D01*
X415603Y60000D01*
X410524D01*
X407985Y62539D01*
X423220Y75235D02*
Y60000D01*
X430838D01*
X433377Y62539D01*
Y65078D01*
X430838Y67618D01*
X423220D01*
X430838D01*
X433377Y70157D01*
Y72696D01*
X430838Y75235D01*
X423220D01*
X678180Y563880D02*
Y579115D01*
X685798D01*
X688337Y576576D01*
Y571497D01*
X685798Y568958D01*
X678180D01*
X693415Y579115D02*
Y563880D01*
Y568958D01*
X703572Y579115D01*
X695954Y571497D01*
X703572Y563880D01*
X162560Y91440D02*
Y106675D01*
X170177D01*
X172717Y104136D01*
Y99058D01*
X170177Y96518D01*
X162560D01*
X167638D02*
X172717Y91440D01*
X177795D02*
X182873D01*
X180334D01*
Y106675D01*
X177795Y104136D01*
X160020Y38100D02*
Y53335D01*
X167638D01*
X170177Y50796D01*
Y45718D01*
X167638Y43178D01*
X160020D01*
X165098D02*
X170177Y38100D01*
X185412D02*
X175255D01*
X185412Y48257D01*
Y50796D01*
X182873Y53335D01*
X177794D01*
X175255Y50796D01*
X157480Y12700D02*
Y27935D01*
X165098D01*
X167637Y25396D01*
Y20317D01*
X165098Y17778D01*
X157480D01*
X162558D02*
X167637Y12700D01*
X172715Y25396D02*
X175254Y27935D01*
X180333D01*
X182872Y25396D01*
Y22857D01*
X180333Y20317D01*
X177793D01*
X180333D01*
X182872Y17778D01*
Y15239D01*
X180333Y12700D01*
X175254D01*
X172715Y15239D01*
X249500Y11750D02*
Y26985D01*
X257118D01*
X259657Y24446D01*
Y19368D01*
X257118Y16828D01*
X249500D01*
X254578D02*
X259657Y11750D01*
X272353D02*
Y26985D01*
X264735Y19368D01*
X274892D01*
X858520Y510540D02*
Y525775D01*
X866137D01*
X868677Y523236D01*
Y518158D01*
X866137Y515618D01*
X858520D01*
X863598D02*
X868677Y510540D01*
X883912Y525775D02*
X873755D01*
Y518158D01*
X878833Y520697D01*
X881373D01*
X883912Y518158D01*
Y513079D01*
X881373Y510540D01*
X876294D01*
X873755Y513079D01*
X345440Y193040D02*
Y208275D01*
X353058D01*
X355597Y205736D01*
Y200658D01*
X353058Y198118D01*
X345440D01*
X350518D02*
X355597Y193040D01*
X370832Y208275D02*
X365753Y205736D01*
X360675Y200658D01*
Y195579D01*
X363214Y193040D01*
X368293D01*
X370832Y195579D01*
Y198118D01*
X368293Y200658D01*
X360675D01*
X858520Y436880D02*
Y452115D01*
X866137D01*
X868677Y449576D01*
Y444497D01*
X866137Y441958D01*
X858520D01*
X863598D02*
X868677Y436880D01*
X873755Y452115D02*
X883912D01*
Y449576D01*
X873755Y439419D01*
Y436880D01*
X858520Y388620D02*
Y403855D01*
X866137D01*
X868677Y401316D01*
Y396237D01*
X866137Y393698D01*
X858520D01*
X863598D02*
X868677Y388620D01*
X873755Y401316D02*
X876294Y403855D01*
X881373D01*
X883912Y401316D01*
Y398777D01*
X881373Y396237D01*
X883912Y393698D01*
Y391159D01*
X881373Y388620D01*
X876294D01*
X873755Y391159D01*
Y393698D01*
X876294Y396237D01*
X873755Y398777D01*
Y401316D01*
X876294Y396237D02*
X881373D01*
X779777Y368296D02*
X777237Y370835D01*
X772159D01*
X769620Y368296D01*
Y365757D01*
X772159Y363218D01*
X777237D01*
X779777Y360678D01*
Y358139D01*
X777237Y355600D01*
X772159D01*
X769620Y358139D01*
X784855Y355600D02*
X789933D01*
X787394D01*
Y370835D01*
X784855Y368296D01*
X167640Y220975D02*
Y208279D01*
X170179Y205740D01*
X175257D01*
X177797Y208279D01*
Y220975D01*
X182875Y205740D02*
X187953D01*
X185414D01*
Y220975D01*
X182875Y218436D01*
X706000Y27735D02*
Y15039D01*
X708539Y12500D01*
X713617D01*
X716157Y15039D01*
Y27735D01*
X721235Y25196D02*
X723774Y27735D01*
X728853D01*
X731392Y25196D01*
Y22657D01*
X728853Y20117D01*
X726313D01*
X728853D01*
X731392Y17578D01*
Y15039D01*
X728853Y12500D01*
X723774D01*
X721235Y15039D01*
X783500Y107735D02*
Y95039D01*
X786039Y92500D01*
X791117D01*
X793657Y95039D01*
Y107735D01*
X808892D02*
X798735D01*
Y100118D01*
X803813Y102657D01*
X806353D01*
X808892Y100118D01*
Y95039D01*
X806353Y92500D01*
X801274D01*
X798735Y95039D01*
X544576Y212339D02*
Y199643D01*
X547115Y197104D01*
X552193D01*
X554733Y199643D01*
Y212339D01*
X569968D02*
X564889Y209800D01*
X559811Y204722D01*
Y199643D01*
X562350Y197104D01*
X567429D01*
X569968Y199643D01*
Y202182D01*
X567429Y204722D01*
X559811D01*
X242567Y237232D02*
X240028Y239771D01*
X234949D01*
X232410Y237232D01*
Y227075D01*
X234949Y224536D01*
X240028D01*
X242567Y227075D01*
X247645Y237232D02*
X250184Y239771D01*
X255263D01*
X257802Y237232D01*
Y234693D01*
X255263Y232153D01*
X252723D01*
X255263D01*
X257802Y229614D01*
Y227075D01*
X255263Y224536D01*
X250184D01*
X247645Y227075D01*
X263144Y188971D02*
Y178814D01*
X268222Y173736D01*
X273301Y178814D01*
Y188971D01*
X288536Y186432D02*
X285997Y188971D01*
X280918D01*
X278379Y186432D01*
Y176275D01*
X280918Y173736D01*
X285997D01*
X288536Y176275D01*
X303771Y186432D02*
X301232Y188971D01*
X296153D01*
X293614Y186432D01*
Y176275D01*
X296153Y173736D01*
X301232D01*
X303771Y176275D01*
X275079Y81784D02*
X272540Y84323D01*
X267461D01*
X264922Y81784D01*
Y71627D01*
X267461Y69088D01*
X272540D01*
X275079Y71627D01*
Y76705D01*
X270000D01*
X280157Y69088D02*
Y84323D01*
X290314Y69088D01*
Y84323D01*
X295392D02*
Y69088D01*
X303010D01*
X305549Y71627D01*
Y81784D01*
X303010Y84323D01*
X295392D01*
X428250Y562985D02*
Y547750D01*
X438407D01*
X451103Y562985D02*
X446024D01*
X443485Y560446D01*
Y550289D01*
X446024Y547750D01*
X451103D01*
X453642Y550289D01*
Y560446D01*
X451103Y562985D01*
X458720Y547750D02*
Y562985D01*
X466338D01*
X468877Y560446D01*
Y555368D01*
X466338Y552828D01*
X458720D01*
X473955Y562985D02*
X479034D01*
X476494D01*
Y547750D01*
X473955D01*
X479034D01*
X496808Y560446D02*
X494269Y562985D01*
X489190D01*
X486651Y560446D01*
Y550289D01*
X489190Y547750D01*
X494269D01*
X496808Y550289D01*
X501886Y547750D02*
Y557907D01*
X506964Y562985D01*
X512043Y557907D01*
Y547750D01*
Y555368D01*
X501886D01*
X532356Y562985D02*
Y547750D01*
X539974D01*
X542513Y550289D01*
Y552828D01*
X539974Y555368D01*
X532356D01*
X539974D01*
X542513Y557907D01*
Y560446D01*
X539974Y562985D01*
X532356D01*
X555209D02*
X550131D01*
X547591Y560446D01*
Y550289D01*
X550131Y547750D01*
X555209D01*
X557748Y550289D01*
Y560446D01*
X555209Y562985D01*
X562826Y547750D02*
Y557907D01*
X567905Y562985D01*
X572983Y557907D01*
Y547750D01*
Y555368D01*
X562826D01*
X578062Y547750D02*
Y562985D01*
X585679D01*
X588218Y560446D01*
Y555368D01*
X585679Y552828D01*
X578062D01*
X583140D02*
X588218Y547750D01*
X593297Y562985D02*
Y547750D01*
X600914D01*
X603453Y550289D01*
Y560446D01*
X600914Y562985D01*
X593297D01*
D41*
X181610Y148300D02*
G03*
X181610Y148300I-1250J0D01*
G01*
X887060Y360690D02*
G03*
X887060Y360690I-1250J0D01*
G01*
X811290Y57040D02*
G03*
X811290Y57040I-1250J0D01*
G01*
X555850Y170170D02*
G03*
X555850Y170170I-1250J0D01*
G01*
D42*
X581100Y153420D02*
G03*
X581100Y153420I-3000J0D01*
G01*
D43*
X437060Y48490D02*
D03*
D44*
X766250Y64130D02*
D03*
X769000D02*
D03*
D45*
X134653Y532550D02*
Y583800D01*
Y532550D02*
X210903D01*
Y583800D01*
X758250Y52130D02*
Y70880D01*
X777000D01*
Y52130D02*
Y70880D01*
X758250Y52130D02*
X777000D01*
D46*
X38100Y200660D02*
Y486410D01*
Y505460D01*
X12700D02*
X38100D01*
X12700Y200660D02*
Y505460D01*
Y200660D02*
X38100D01*
X179860Y160800D02*
X246860D01*
X179860Y194800D02*
X246860D01*
X179860Y160800D02*
Y194800D01*
X246860Y160800D02*
Y194800D01*
X795400Y347980D02*
X881000D01*
X795400D02*
Y373380D01*
X881000D01*
Y347980D02*
Y373380D01*
X698500Y175260D02*
X876300D01*
X698500Y149860D02*
Y175260D01*
Y149860D02*
X876300D01*
Y175260D01*
X688340Y7620D02*
Y33020D01*
X535940Y7620D02*
Y33020D01*
X688340D01*
X535940Y7620D02*
X688340D01*
X439420Y58420D02*
X464820D01*
X439420D02*
Y261620D01*
X464820D01*
Y58420D02*
Y261620D01*
X193640Y71120D02*
Y81120D01*
X243240D01*
Y61120D02*
Y81120D01*
X193640Y61120D02*
X243240D01*
X193640D02*
Y71120D01*
X7620Y165100D02*
X33020D01*
X7620Y12700D02*
X33020D01*
X7620D02*
Y165100D01*
X33020Y12700D02*
Y165100D01*
X312420Y200660D02*
Y486410D01*
Y505460D01*
X287020D02*
X312420D01*
X287020Y200660D02*
Y505460D01*
Y200660D02*
X312420D01*
X739140Y205740D02*
Y231140D01*
X866140D01*
X739140Y205740D02*
X866140D01*
Y231140D01*
X708660Y541020D02*
Y566420D01*
X861060Y541020D02*
Y566420D01*
X708660Y541020D02*
X861060D01*
X708660Y566420D02*
X861060D01*
X835040Y73040D02*
X843040D01*
Y69040D02*
Y73040D01*
X813040D02*
X821040D01*
X813040Y69040D02*
Y73040D01*
X568100Y80420D02*
Y163420D01*
X651100Y80420D02*
Y163420D01*
X568100D02*
X651100D01*
X568100Y80420D02*
X651100D01*
X261620Y165100D02*
X312420D01*
X261620Y139700D02*
Y165100D01*
Y139700D02*
X312420D01*
Y165100D01*
X261620Y119380D02*
X312420D01*
X261620Y93980D02*
Y119380D01*
Y93980D02*
X312420D01*
Y119380D01*
D47*
X344800Y522400D02*
X758800D01*
Y270400D02*
Y522400D01*
X344800Y270400D02*
Y279400D01*
Y522400D01*
M02*
