%FSLAX44Y44*%
%MOMM*%
G71*
G01*
G75*
G04 Layer_Color=8388736*
%ADD10C,0.3810*%
%ADD11C,0.2540*%
%ADD12C,0.6350*%
%ADD13R,1.2700X4.2000*%
%ADD14R,1.3500X4.7000*%
%ADD15R,2.1000X1.6000*%
%ADD16R,0.4000X1.3500*%
%ADD17R,1.9000X1.9000*%
%ADD18R,1.8000X1.9000*%
%ADD19R,0.9000X1.9000*%
%ADD20R,3.2000X1.9000*%
%ADD21R,1.5240X1.0160*%
%ADD22R,1.0160X1.5240*%
%ADD23R,1.1000X1.0000*%
%ADD24R,0.9100X1.2200*%
%ADD25R,0.8000X0.8000*%
%ADD26R,0.8000X0.8000*%
%ADD27R,1.0000X1.3500*%
%ADD28R,0.3700X0.4300*%
%ADD29R,0.3700X0.3000*%
%ADD30R,0.6000X1.6000*%
%ADD31O,1.9000X0.5500*%
%ADD32O,0.5500X1.9000*%
%ADD33C,1.5000*%
%ADD34R,1.5000X1.5000*%
%ADD35R,1.8500X1.8500*%
%ADD36C,1.8500*%
%ADD37R,1.5000X1.5000*%
%ADD38R,1.0000X1.5240*%
%ADD39C,1.7780*%
%ADD40C,1.2700*%
%ADD41C,0.2500*%
%ADD42C,0.6000*%
%ADD43C,0.2500*%
%ADD44R,0.1000X0.1000*%
%ADD45C,0.0500*%
%ADD46C,0.2000*%
%ADD47C,1.0000*%
%ADD48C,0.0254*%
%ADD49R,1.4732X4.4032*%
%ADD50R,1.5532X4.9032*%
%ADD51R,2.3032X1.8032*%
%ADD52R,0.6032X1.5532*%
%ADD53R,2.1032X2.1032*%
%ADD54R,2.0032X2.1032*%
%ADD55R,1.1032X2.1032*%
%ADD56R,3.4032X2.1032*%
%ADD57R,1.7240X1.2160*%
%ADD58R,1.2160X1.7240*%
%ADD59R,1.3032X1.2032*%
%ADD60R,1.1132X1.4232*%
%ADD61R,1.0032X1.0032*%
%ADD62R,1.0032X1.0032*%
%ADD63R,1.2032X1.5532*%
%ADD64R,0.5732X0.6332*%
%ADD65R,0.5732X0.5032*%
%ADD66R,0.8032X1.8032*%
%ADD67O,2.1032X0.7532*%
%ADD68O,0.7532X2.1032*%
%ADD69C,1.7032*%
%ADD70R,1.7032X1.7032*%
%ADD71R,2.0532X2.0532*%
%ADD72C,2.0532*%
%ADD73R,1.7032X1.7032*%
%ADD74R,1.2032X1.7272*%
%ADD75C,1.9812*%
%ADD76C,1.4732*%
D49*
X172903Y557300D02*
D03*
D50*
X144653Y558800D02*
D03*
X200253D02*
D03*
D51*
X485560Y40740D02*
D03*
X423560D02*
D03*
D52*
X467560Y41990D02*
D03*
X461060D02*
D03*
X454560D02*
D03*
X448060D02*
D03*
X441560D02*
D03*
D53*
X466560Y15240D02*
D03*
X442560D02*
D03*
D54*
X492560D02*
D03*
X416560D02*
D03*
D55*
X190360Y148300D02*
D03*
X213360D02*
D03*
X236360D02*
D03*
D56*
X213360Y207300D02*
D03*
D57*
X248920Y505460D02*
D03*
Y492760D02*
D03*
Y480060D02*
D03*
Y467360D02*
D03*
Y454660D02*
D03*
Y441960D02*
D03*
Y429460D02*
D03*
Y353260D02*
D03*
Y365960D02*
D03*
Y378660D02*
D03*
Y391360D02*
D03*
Y404060D02*
D03*
Y416760D02*
D03*
Y327760D02*
D03*
Y315060D02*
D03*
Y302360D02*
D03*
Y289660D02*
D03*
Y276960D02*
D03*
Y264260D02*
D03*
Y340460D02*
D03*
X71120D02*
D03*
Y264260D02*
D03*
Y276960D02*
D03*
Y289660D02*
D03*
Y302360D02*
D03*
Y315060D02*
D03*
Y327760D02*
D03*
Y416760D02*
D03*
Y404060D02*
D03*
Y391360D02*
D03*
Y378660D02*
D03*
Y365960D02*
D03*
Y353260D02*
D03*
Y429460D02*
D03*
Y505460D02*
D03*
Y441960D02*
D03*
Y454660D02*
D03*
Y467360D02*
D03*
Y480060D02*
D03*
Y492760D02*
D03*
D58*
X198120Y518160D02*
D03*
X185420D02*
D03*
X172720D02*
D03*
X160020D02*
D03*
X147320D02*
D03*
X134620D02*
D03*
X121920D02*
D03*
D59*
X118500Y71120D02*
D03*
X135500D02*
D03*
X118500Y50800D02*
D03*
X135500D02*
D03*
X841620Y421640D02*
D03*
X824620D02*
D03*
X387740Y91440D02*
D03*
X404740D02*
D03*
X387740Y111760D02*
D03*
X404740D02*
D03*
X387740Y132080D02*
D03*
X404740D02*
D03*
X841620Y490220D02*
D03*
X824620D02*
D03*
X387740Y152400D02*
D03*
X404740D02*
D03*
Y172720D02*
D03*
X387740D02*
D03*
X841620Y469900D02*
D03*
X824620D02*
D03*
X267580Y213360D02*
D03*
X250580D02*
D03*
D60*
X234790Y71120D02*
D03*
X202090D02*
D03*
D61*
X370840Y24140D02*
D03*
Y40640D02*
D03*
D62*
X118100Y213360D02*
D03*
X101600D02*
D03*
X118100Y187960D02*
D03*
X101600D02*
D03*
D63*
X208200Y99930D02*
D03*
X228200D02*
D03*
X208200Y44050D02*
D03*
X228200D02*
D03*
X208200Y18650D02*
D03*
X228200D02*
D03*
X289480D02*
D03*
X309480D02*
D03*
X822880Y516490D02*
D03*
X842880D02*
D03*
X406480Y199790D02*
D03*
X386480D02*
D03*
X822880Y445370D02*
D03*
X842880D02*
D03*
X843360Y397910D02*
D03*
X823360D02*
D03*
D64*
X762000Y55880D02*
D03*
X773300D02*
D03*
X762000Y67130D02*
D03*
X773300D02*
D03*
D65*
X762000Y61480D02*
D03*
X773300D02*
D03*
D66*
X828040Y75040D02*
D03*
X837540Y57040D02*
D03*
X818540D02*
D03*
D67*
X554600Y161920D02*
D03*
Y153920D02*
D03*
Y145920D02*
D03*
Y137920D02*
D03*
Y129920D02*
D03*
Y121920D02*
D03*
Y113920D02*
D03*
Y105920D02*
D03*
Y97920D02*
D03*
Y89920D02*
D03*
Y81920D02*
D03*
X664600D02*
D03*
Y89920D02*
D03*
Y97920D02*
D03*
Y105920D02*
D03*
Y113920D02*
D03*
Y121920D02*
D03*
Y129920D02*
D03*
Y137920D02*
D03*
Y145920D02*
D03*
Y153920D02*
D03*
Y161920D02*
D03*
D68*
X569600Y66920D02*
D03*
X577600D02*
D03*
X585600D02*
D03*
X593600D02*
D03*
X601600D02*
D03*
X609600D02*
D03*
X617600D02*
D03*
X625600D02*
D03*
X633600D02*
D03*
X641600D02*
D03*
X649600D02*
D03*
Y176920D02*
D03*
X641600D02*
D03*
X633600D02*
D03*
X625600D02*
D03*
X617600D02*
D03*
X609600D02*
D03*
X601600D02*
D03*
X593600D02*
D03*
X585600D02*
D03*
X577600D02*
D03*
X569600D02*
D03*
D69*
X25400Y213360D02*
D03*
Y238760D02*
D03*
Y264160D02*
D03*
Y289560D02*
D03*
Y314960D02*
D03*
Y340360D02*
D03*
Y365760D02*
D03*
Y391160D02*
D03*
Y416560D02*
D03*
Y441960D02*
D03*
Y467360D02*
D03*
X863600Y162560D02*
D03*
X838200D02*
D03*
X812800D02*
D03*
X787400D02*
D03*
X736600D02*
D03*
X762000D02*
D03*
X574040Y20320D02*
D03*
X599440D02*
D03*
X624840D02*
D03*
X650240D02*
D03*
X675640D02*
D03*
X452120Y223520D02*
D03*
Y198120D02*
D03*
Y172720D02*
D03*
Y147320D02*
D03*
Y121920D02*
D03*
Y96520D02*
D03*
Y71120D02*
D03*
X20320Y50800D02*
D03*
Y76200D02*
D03*
Y101600D02*
D03*
Y127000D02*
D03*
Y152400D02*
D03*
X299720Y213360D02*
D03*
Y238760D02*
D03*
Y264160D02*
D03*
Y289560D02*
D03*
Y314960D02*
D03*
Y340360D02*
D03*
Y365760D02*
D03*
Y391160D02*
D03*
Y416560D02*
D03*
Y441960D02*
D03*
Y467360D02*
D03*
X853440Y218440D02*
D03*
X828040D02*
D03*
X802640D02*
D03*
X777240D02*
D03*
X822960Y553720D02*
D03*
X797560D02*
D03*
X772160D02*
D03*
X746760D02*
D03*
X721360D02*
D03*
X299720Y152400D02*
D03*
Y106680D02*
D03*
D70*
X25400Y492760D02*
D03*
X452120Y248920D02*
D03*
X20320Y25400D02*
D03*
X299720Y492760D02*
D03*
D71*
X863600Y360680D02*
D03*
D72*
X812800D02*
D03*
D73*
X711200Y162560D02*
D03*
X548640Y20320D02*
D03*
X751840Y218440D02*
D03*
X848360Y553720D02*
D03*
X274320Y152400D02*
D03*
Y106680D02*
D03*
D74*
X431800Y279400D02*
D03*
X446800D02*
D03*
X461800D02*
D03*
X491800D02*
D03*
X476800D02*
D03*
X536800D02*
D03*
X551800D02*
D03*
X521800D02*
D03*
X506800D02*
D03*
X626800D02*
D03*
X641800D02*
D03*
X671800D02*
D03*
X656800D02*
D03*
X596800D02*
D03*
X611800D02*
D03*
X581800D02*
D03*
X566800D02*
D03*
D75*
X378800Y297400D02*
D03*
X724800D02*
D03*
D76*
X686250Y80500D02*
D03*
X698500Y106680D02*
D03*
X743076Y71500D02*
D03*
X828750Y291750D02*
D03*
X45720Y302260D02*
D03*
X43180Y281940D02*
D03*
X685800Y116840D02*
D03*
X676148Y50292D02*
D03*
X721360Y78740D02*
D03*
X596646Y125730D02*
D03*
X362458Y197358D02*
D03*
X368046Y136652D02*
D03*
X45520Y391360D02*
D03*
X541528Y311912D02*
D03*
X659638Y70866D02*
D03*
X641604Y106934D02*
D03*
X547370Y71882D02*
D03*
X342900Y176276D02*
D03*
X573532Y154180D02*
D03*
X513716Y124840D02*
D03*
X676402Y245110D02*
D03*
X684784Y259588D02*
D03*
X691642Y219456D02*
D03*
X826262Y182626D02*
D03*
X852932Y136906D02*
D03*
X624078Y94742D02*
D03*
X657098Y50292D02*
D03*
X573532Y85852D02*
D03*
X325882Y24130D02*
D03*
X186690Y247650D02*
D03*
X52070Y474218D02*
D03*
X27686Y512826D02*
D03*
X230378Y492760D02*
D03*
X556260Y173736D02*
D03*
X364490Y163322D02*
D03*
X615188Y146176D02*
D03*
X789940Y333756D02*
D03*
X95250Y416760D02*
D03*
X432562Y188214D02*
D03*
X774700Y175260D02*
D03*
X642366Y125730D02*
D03*
X686562Y133858D02*
D03*
X543560Y223520D02*
D03*
X540766Y198120D02*
D03*
X643128Y84582D02*
D03*
X533146Y144272D02*
D03*
X95250Y350520D02*
D03*
Y399288D02*
D03*
X257048Y44196D02*
D03*
X400750Y57000D02*
D03*
X87376Y198374D02*
D03*
X581152Y229616D02*
D03*
X200660Y118110D02*
D03*
X771144Y29210D02*
D03*
X863854Y388366D02*
D03*
X602742Y437642D02*
D03*
X724154Y437388D02*
D03*
X422148Y321818D02*
D03*
X413004Y348742D02*
D03*
X776224Y345186D02*
D03*
X688086Y358140D02*
D03*
X70104Y228092D02*
D03*
X506984Y153924D02*
D03*
M02*
