M48
;Layer_Color=9474304
;FILE_FORMAT=2:5
INCH,LZ
;TYPE=PLATED
T2F00S00C0.02800
T3F00S00C0.03000
T4F00S00C0.03543
T5F00S00C0.04331
%
T02
X01012Y00174
X01283Y00095
X03036Y00115
X029255Y002815
X0284Y0031
X0270177Y0031693
X02597Y00279
X02587Y00198
X02662
X02532Y00333
X02526Y00421
X02529Y00495
X02349
X02422Y005755
X02258Y0060701
X0219Y00684
X02129Y0078
X0214Y0088
X02288Y00904
X02663Y00965
X02696Y01022
X02723Y00864
X02703Y00527
X027Y0046
X0275Y0042
X02457Y00373
X02258Y00338
X02155Y00283
X020225Y004915
X01996Y00606
X02099Y00568
X02132Y01228
X02373Y01723
X02851Y01722
X02709Y0141
X03056Y01359
X0311Y01314
X0326279Y0114862
X03253Y00719
X0305Y0069
X03358Y00539
X03401Y01529
X01626Y01373
X01662Y01267
X01703Y00741
X01427Y00777
X01435Y00643
X01449Y00538
X0135Y00694
X0157776Y0022441
X0079Y00465
X00735Y00975
X00344Y00781
X00375Y0138
Y01572
Y0164079
X0017921Y0154079
X0018Y0119
X0017Y0111
X00276Y00898
X00205Y01867
X00109Y02019
X00907Y0194
T03
X0187717Y011
X0193622
X0199528
X0205433
X0211339
X0217244
X022315
X0229055
X0234961
X0240866
X0246772
X0252677
X0258583
X0264488
X0181811
X0175906
X017
T04
X0008Y001
X0216Y0008
X0226
X0236
X0246
X0256
X0266
X028Y0064
X029
X03
X031
X032
X033
X034
X0336Y0086
X0326
X0316
X0306
X0296
X0178Y0088
Y0078
Y0068
Y0058
Y0048
Y0038
Y0028
Y0098
X0118Y0094
Y0104
Y0114
Y0124
Y0134
Y0144
Y0154
Y0164
Y0174
Y0084
Y006
X0108
Y0042
X0118
X0008Y004
Y005
Y006
X001Y0084
Y0094
Y0104
Y0114
Y0124
Y0134
Y0144
Y0154
Y0164
Y0174
X0008Y003
Y002
X001Y0184
Y0194
X0118
Y0184
X0284Y0218
X0294
X0304
X0314
X0324
X0334
T05
X032Y0142
X034
M30
