%FSLAX44Y44*%
%MOMM*%
G71*
G01*
G75*
%ADD10C,0.3810*%
%ADD11C,0.2540*%
%ADD12C,0.6350*%
%ADD13R,1.2700X4.2000*%
%ADD14R,1.3500X4.7000*%
%ADD15R,2.1000X1.6000*%
%ADD16R,0.4000X1.3500*%
%ADD17R,1.9000X1.9000*%
%ADD18R,1.8000X1.9000*%
%ADD19R,0.9000X1.9000*%
%ADD20R,3.2000X1.9000*%
%ADD21R,1.5240X1.0160*%
%ADD22R,1.0160X1.5240*%
%ADD23R,1.1000X1.0000*%
%ADD24R,0.9100X1.2200*%
%ADD25R,0.8000X0.8000*%
%ADD26R,0.8000X0.8000*%
%ADD27R,1.0000X1.3500*%
%ADD28R,0.3700X0.4300*%
%ADD29R,0.3700X0.3000*%
%ADD30R,0.6000X1.6000*%
%ADD31O,1.9000X0.5500*%
%ADD32O,0.5500X1.9000*%
%ADD33C,1.5000*%
%ADD34R,1.5000X1.5000*%
%ADD35R,1.8500X1.8500*%
%ADD36C,1.8500*%
%ADD37R,1.5000X1.5000*%
%ADD38R,1.0000X1.5240*%
%ADD39C,1.7780*%
%ADD40C,1.2700*%
%ADD41C,0.2500*%
%ADD42C,0.6000*%
%ADD43C,0.2500*%
%ADD44R,0.1000X0.1000*%
%ADD45C,0.0500*%
%ADD46C,0.2000*%
%ADD47C,1.0000*%
%ADD48C,0.0254*%
%ADD49R,1.4732X4.4032*%
%ADD50R,1.5532X4.9032*%
%ADD51R,2.3032X1.8032*%
%ADD52R,0.6032X1.5532*%
%ADD53R,2.1032X2.1032*%
%ADD54R,2.0032X2.1032*%
%ADD55R,1.1032X2.1032*%
%ADD56R,3.4032X2.1032*%
%ADD57R,1.7240X1.2160*%
%ADD58R,1.2160X1.7240*%
%ADD59R,1.3032X1.2032*%
%ADD60R,1.1132X1.4232*%
%ADD61R,1.0032X1.0032*%
%ADD62R,1.0032X1.0032*%
%ADD63R,1.2032X1.5532*%
%ADD64R,0.5732X0.6332*%
%ADD65R,0.5732X0.5032*%
%ADD66R,0.8032X1.8032*%
%ADD67O,2.1032X0.7532*%
%ADD68O,0.7532X2.1032*%
%ADD69C,1.7032*%
%ADD70R,1.7032X1.7032*%
%ADD71R,2.0532X2.0532*%
%ADD72C,2.0532*%
%ADD73R,1.7032X1.7032*%
%ADD74R,1.2032X1.7272*%
%ADD75C,1.9812*%
%ADD76C,1.4732*%
%ADD77C,0.1000*%
D14*
X144653Y558800D02*
D03*
X200253D02*
D03*
D33*
X25400Y213360D02*
D03*
Y238760D02*
D03*
Y264160D02*
D03*
Y289560D02*
D03*
Y314960D02*
D03*
Y340360D02*
D03*
Y365760D02*
D03*
Y391160D02*
D03*
Y416560D02*
D03*
Y441960D02*
D03*
Y467360D02*
D03*
X863600Y162560D02*
D03*
X838200D02*
D03*
X812800D02*
D03*
X787400D02*
D03*
X736600D02*
D03*
X762000D02*
D03*
X574040Y20320D02*
D03*
X599440D02*
D03*
X624840D02*
D03*
X650240D02*
D03*
X675640D02*
D03*
X452120Y223520D02*
D03*
Y198120D02*
D03*
Y172720D02*
D03*
Y147320D02*
D03*
Y121920D02*
D03*
Y96520D02*
D03*
Y71120D02*
D03*
X20320Y50800D02*
D03*
Y76200D02*
D03*
Y101600D02*
D03*
Y127000D02*
D03*
Y152400D02*
D03*
X299720Y213360D02*
D03*
Y238760D02*
D03*
Y264160D02*
D03*
Y289560D02*
D03*
Y314960D02*
D03*
Y340360D02*
D03*
Y365760D02*
D03*
Y391160D02*
D03*
Y416560D02*
D03*
Y441960D02*
D03*
Y467360D02*
D03*
X853440Y218440D02*
D03*
X828040D02*
D03*
X802640D02*
D03*
X777240D02*
D03*
X822960Y553720D02*
D03*
X797560D02*
D03*
X772160D02*
D03*
X746760D02*
D03*
X721360D02*
D03*
X299720Y152400D02*
D03*
Y106680D02*
D03*
D34*
X25400Y492760D02*
D03*
X452120Y248920D02*
D03*
X20320Y25400D02*
D03*
X299720Y492760D02*
D03*
D35*
X863600Y360680D02*
D03*
D36*
X812800D02*
D03*
D37*
X711200Y162560D02*
D03*
X548640Y20320D02*
D03*
X751840Y218440D02*
D03*
X848360Y553720D02*
D03*
X274320Y152400D02*
D03*
Y106680D02*
D03*
D38*
X431800Y279400D02*
D03*
X446800D02*
D03*
X461800D02*
D03*
X491800D02*
D03*
X476800D02*
D03*
X536800D02*
D03*
X551800D02*
D03*
X521800D02*
D03*
X506800D02*
D03*
X626800D02*
D03*
X641800D02*
D03*
X671800D02*
D03*
X656800D02*
D03*
X596800D02*
D03*
X611800D02*
D03*
X581800D02*
D03*
X566800D02*
D03*
D39*
X378800Y297400D02*
D03*
X724800D02*
D03*
M02*
