%FSLAX44Y44*%
%MOMM*%
G71*
G01*
G75*
G04 Layer_Physical_Order=1*
G04 Layer_Color=255*
%ADD10C,0.3810*%
%ADD11C,0.2540*%
%ADD12C,0.6350*%
%ADD13R,1.2700X4.2000*%
%ADD14R,1.3500X4.7000*%
%ADD15R,2.1000X1.6000*%
%ADD16R,0.4000X1.3500*%
%ADD17R,1.9000X1.9000*%
%ADD18R,1.8000X1.9000*%
%ADD19R,0.9000X1.9000*%
%ADD20R,3.2000X1.9000*%
%ADD21R,1.5240X1.0160*%
%ADD22R,1.0160X1.5240*%
%ADD23R,1.1000X1.0000*%
%ADD24R,0.9100X1.2200*%
%ADD25R,0.8000X0.8000*%
%ADD26R,0.8000X0.8000*%
%ADD27R,1.0000X1.3500*%
%ADD28R,0.3700X0.4300*%
%ADD29R,0.3700X0.3000*%
%ADD30R,0.6000X1.6000*%
%ADD31O,1.9000X0.5500*%
%ADD32O,0.5500X1.9000*%
%ADD33C,1.5000*%
%ADD34R,1.5000X1.5000*%
%ADD35R,1.8500X1.8500*%
%ADD36C,1.8500*%
%ADD37R,1.5000X1.5000*%
%ADD38R,1.0000X1.5240*%
%ADD39C,1.7780*%
%ADD40C,1.2700*%
G36*
X59382Y362807D02*
X59674Y362845D01*
X61722Y362438D01*
Y359102D01*
Y346402D01*
Y346160D01*
X60549Y345674D01*
X50507Y355715D01*
X49289Y356529D01*
X47852Y356815D01*
X30959D01*
X30551Y358018D01*
X32017Y359143D01*
X32146Y359311D01*
X34457Y361084D01*
X37343Y362280D01*
X40167Y362651D01*
X40441Y362625D01*
Y362652D01*
X45466D01*
X46472Y362852D01*
X59382D01*
Y362807D01*
D02*
G37*
G36*
X302817Y356050D02*
X305704Y354854D01*
X307964Y353120D01*
X308138Y352908D01*
X308158Y352927D01*
X308158Y352927D01*
X315154Y345931D01*
Y251247D01*
X313939Y250879D01*
X313558Y251448D01*
X309875Y255131D01*
X308657Y255945D01*
Y255945D01*
X308657D01*
D01*
D01*
D01*
D01*
X308657D01*
Y255945D01*
D01*
D01*
X308657Y255945D01*
X308657Y255945D01*
X308657Y255945D01*
X308657D01*
X307220Y256231D01*
X306603D01*
X306195Y257434D01*
X306337Y257543D01*
X307824Y259481D01*
X308759Y261738D01*
X309078Y264160D01*
X308759Y266582D01*
X307824Y268839D01*
X306337Y270777D01*
X304399Y272264D01*
X302142Y273199D01*
X299720Y273518D01*
X299509Y273490D01*
X296623Y273870D01*
X293736Y275066D01*
X291476Y276800D01*
X291302Y277012D01*
X291282Y276993D01*
X291282Y276993D01*
X289117Y279158D01*
X288109Y279831D01*
X286920Y280068D01*
X260658D01*
Y280114D01*
X260366Y280075D01*
X258318Y280483D01*
Y282802D01*
Y286138D01*
X260366Y286545D01*
X260658Y286506D01*
Y286552D01*
X273663D01*
X274166Y286452D01*
X284680D01*
Y286425D01*
X284953Y286451D01*
X287777Y286080D01*
X290663Y284884D01*
X292974Y283111D01*
X293103Y282943D01*
X295041Y281456D01*
X297298Y280521D01*
X299720Y280202D01*
X302142Y280521D01*
X304399Y281456D01*
X306337Y282943D01*
X307824Y284881D01*
X308759Y287138D01*
X309078Y289560D01*
X308759Y291982D01*
X307824Y294239D01*
X306337Y296177D01*
X304399Y297664D01*
X302142Y298599D01*
X299720Y298918D01*
X297298Y298599D01*
X295041Y297664D01*
X293103Y296177D01*
X292974Y296009D01*
X290663Y294236D01*
X287777Y293040D01*
X284953Y292669D01*
X284680Y292696D01*
Y292668D01*
X274569D01*
X274429Y292696D01*
X274066Y292768D01*
X260658D01*
Y292814D01*
X260366Y292775D01*
X258318Y293183D01*
Y295502D01*
Y298838D01*
X260366Y299245D01*
X260658Y299206D01*
Y299252D01*
X287120D01*
X288309Y299489D01*
X289318Y300163D01*
X291282Y302127D01*
X291282Y302127D01*
X291302Y302108D01*
X291476Y302320D01*
X293736Y304054D01*
X296623Y305250D01*
X299509Y305630D01*
X299720Y305602D01*
X302142Y305921D01*
X304399Y306856D01*
X306337Y308343D01*
X307824Y310281D01*
X308759Y312538D01*
X309078Y314960D01*
X308759Y317382D01*
X307824Y319639D01*
X306337Y321577D01*
X304399Y323064D01*
X302142Y323999D01*
X299720Y324318D01*
X297298Y323999D01*
X295041Y323064D01*
X293103Y321577D01*
X291616Y319639D01*
X290681Y317382D01*
X290362Y314960D01*
X290390Y314749D01*
X290010Y311863D01*
X288814Y308976D01*
X287080Y306716D01*
X286868Y306542D01*
X286887Y306522D01*
X286887Y306522D01*
X285833Y305468D01*
X260658D01*
Y305514D01*
X260366Y305475D01*
X258318Y305882D01*
Y308202D01*
Y311538D01*
X260366Y311945D01*
X260658Y311906D01*
Y311952D01*
X274420D01*
X275609Y312189D01*
X276618Y312863D01*
X291282Y327527D01*
X291282D01*
Y327527D01*
X291283Y327527D01*
X291302Y327508D01*
X291304Y327510D01*
X291304Y327510D01*
X291447Y327684D01*
X291476Y327720D01*
X293736Y329454D01*
X296623Y330650D01*
X299509Y331030D01*
X299720Y331002D01*
X302142Y331321D01*
X304399Y332256D01*
X306337Y333743D01*
X307824Y335681D01*
X308759Y337938D01*
X309078Y340360D01*
X308759Y342782D01*
X307824Y345039D01*
X306337Y346977D01*
X304399Y348464D01*
X302142Y349399D01*
X299720Y349718D01*
X297298Y349399D01*
X295041Y348464D01*
X293103Y346977D01*
X291616Y345039D01*
X290681Y342782D01*
X290362Y340360D01*
X290390Y340149D01*
X290010Y337262D01*
X288814Y334376D01*
X287080Y332116D01*
X286868Y331942D01*
X286887Y331922D01*
X286887Y331922D01*
X273133Y318168D01*
X260658D01*
Y318214D01*
X260366Y318175D01*
X258318Y318582D01*
Y320902D01*
Y324238D01*
X260366Y324645D01*
X260658Y324606D01*
Y324652D01*
X261720D01*
X262909Y324889D01*
X263918Y325563D01*
X291282Y352927D01*
X291282D01*
X291282Y352927D01*
X291302Y352908D01*
X291476Y353120D01*
X293736Y354854D01*
X296623Y356050D01*
X299509Y356430D01*
X299720Y356402D01*
X299931Y356430D01*
X302817Y356050D01*
D02*
G37*
G36*
X290561Y367269D02*
X290362Y365760D01*
X290390Y365549D01*
X290010Y362663D01*
X288814Y359776D01*
X287080Y357516D01*
X286868Y357342D01*
X286887Y357322D01*
X286887Y357322D01*
X260452Y330886D01*
X260366Y330875D01*
X258318Y331283D01*
Y333602D01*
Y337484D01*
X258845Y337589D01*
X259854Y338263D01*
X261976Y340386D01*
X262076Y340467D01*
X262076Y340467D01*
X262067Y340476D01*
X266100Y344509D01*
X266433Y344782D01*
Y344782D01*
Y344842D01*
X270520Y348929D01*
X270756Y349131D01*
Y349131D01*
Y349165D01*
X289422Y367831D01*
X290561Y367269D01*
D02*
G37*
G36*
X60915Y438179D02*
X60915Y438179D01*
Y438179D01*
X61722Y438065D01*
Y435102D01*
Y422602D01*
Y409902D01*
Y397202D01*
Y394883D01*
X59674Y394475D01*
X59382Y394514D01*
Y394468D01*
X57784D01*
Y394482D01*
X57673Y394471D01*
X55411Y394769D01*
X53200Y395685D01*
X51367Y397092D01*
X51317Y397157D01*
X49619Y398460D01*
X47642Y399279D01*
X45520Y399558D01*
X43398Y399279D01*
X41421Y398460D01*
X39723Y397157D01*
X38420Y395459D01*
X37601Y393482D01*
X37322Y391360D01*
X37601Y389238D01*
X38420Y387261D01*
X39723Y385563D01*
X41421Y384260D01*
X43398Y383441D01*
X45520Y383162D01*
X47642Y383441D01*
X49619Y384260D01*
X51317Y385563D01*
X51367Y385629D01*
X53200Y387035D01*
X55411Y387951D01*
X57673Y388249D01*
X57784Y388238D01*
Y388252D01*
X59382D01*
Y388206D01*
X59674Y388245D01*
X61722Y387838D01*
Y384502D01*
Y382183D01*
X59674Y381775D01*
X59382Y381814D01*
Y381768D01*
X34107D01*
X32436Y383439D01*
X32108Y384231D01*
X32428Y385004D01*
X32399Y385029D01*
X32454Y385112D01*
X33504Y386481D01*
X34439Y388738D01*
X34758Y391160D01*
X34439Y393582D01*
X33504Y395839D01*
X32017Y397777D01*
X30079Y399264D01*
X30246Y400105D01*
X30480D01*
X31917Y400391D01*
X33135Y401205D01*
X48375Y416445D01*
X49189Y417663D01*
X49475Y419100D01*
Y430245D01*
X57435Y438205D01*
X60915D01*
X60915Y438179D01*
D02*
G37*
G36*
X283931Y388112D02*
Y379966D01*
X273033Y369068D01*
X260658D01*
Y369114D01*
X260366Y369075D01*
X258318Y369483D01*
Y371802D01*
Y375138D01*
X260366Y375545D01*
X260658Y375507D01*
Y375552D01*
X268424D01*
X269613Y375789D01*
X270622Y376463D01*
X282757Y388598D01*
X283931Y388112D01*
D02*
G37*
G36*
X20249Y398902D02*
X18783Y397777D01*
X17296Y395839D01*
X16361Y393582D01*
X16042Y391160D01*
X16361Y388738D01*
X17296Y386481D01*
X18783Y384543D01*
X20721Y383056D01*
X22978Y382121D01*
X25265Y381820D01*
X26152Y380933D01*
X26162Y380920D01*
X26163Y380922D01*
X28063Y379022D01*
X28080Y379000D01*
X28082Y379003D01*
X30622Y376463D01*
X31631Y375789D01*
X32820Y375552D01*
X59382D01*
Y375507D01*
X59674Y375545D01*
X61722Y375138D01*
Y371802D01*
Y369483D01*
X59674Y369075D01*
X59382Y369114D01*
Y369068D01*
X45666D01*
X44660Y368868D01*
X40441D01*
Y368895D01*
X40167Y368869D01*
X37343Y369240D01*
X34457Y370436D01*
X32146Y372209D01*
X32017Y372377D01*
X30079Y373864D01*
X27822Y374799D01*
X25400Y375118D01*
X22978Y374799D01*
X20721Y373864D01*
X18783Y372377D01*
X17296Y370439D01*
X16361Y368182D01*
X16042Y365760D01*
X16361Y363338D01*
X17296Y361081D01*
X18783Y359143D01*
X20249Y358018D01*
X19841Y356815D01*
X14255D01*
X13407Y357663D01*
Y396717D01*
X16795Y400105D01*
X19841D01*
X20249Y398902D01*
D02*
G37*
G36*
X231703Y339741D02*
Y272514D01*
X231989Y271077D01*
X232803Y269858D01*
X239522Y263139D01*
Y257402D01*
X242807D01*
X245165Y257092D01*
Y257091D01*
X245165D01*
X245451Y255654D01*
X246265Y254436D01*
X247483Y253622D01*
X247559Y253607D01*
X251345Y249821D01*
X252563Y249007D01*
X254000Y248721D01*
X296268D01*
X296516Y247475D01*
X295041Y246864D01*
X293103Y245377D01*
X291616Y243439D01*
X290681Y241182D01*
X290631Y240807D01*
X288515Y238690D01*
X288377Y238577D01*
X288389Y238564D01*
D01*
X284392Y234567D01*
X284020Y234262D01*
X284053Y234228D01*
X279965Y230140D01*
X279698Y229912D01*
X279717Y229892D01*
X275799Y225974D01*
X275348Y225589D01*
X275381Y225556D01*
X275381Y225556D01*
X272642Y222817D01*
X272565D01*
X272565Y222817D01*
Y222817D01*
X272565Y222817D01*
D01*
X272310Y222485D01*
X271314Y221489D01*
X269884Y220533D01*
X268103Y220179D01*
X268080Y220198D01*
Y220198D01*
X267780Y220138D01*
X260302D01*
Y206582D01*
X274858D01*
Y213060D01*
X274918Y213360D01*
X274924D01*
X275166Y215197D01*
X275875Y216909D01*
X277003Y218379D01*
X277003Y218379D01*
X277003Y218379D01*
Y218388D01*
X279953Y221338D01*
X283130Y224052D01*
X286906Y226366D01*
X290998Y228061D01*
X295305Y229095D01*
X299530Y229427D01*
X299720Y229402D01*
X302142Y229721D01*
X304399Y230656D01*
X306009Y231891D01*
X307148Y231329D01*
Y226098D01*
X306624Y225574D01*
X306608D01*
X306608Y225574D01*
Y225574D01*
X306608Y225574D01*
D01*
X306537Y225487D01*
X306461Y225412D01*
X304611Y223992D01*
X302251Y223015D01*
X299860Y222700D01*
X299720Y222718D01*
X297298Y222399D01*
X295041Y221464D01*
X293103Y219977D01*
X291616Y218039D01*
X290681Y215782D01*
X290362Y213360D01*
X290681Y210938D01*
X291616Y208681D01*
X293103Y206743D01*
X293214Y206657D01*
X294683Y204743D01*
X295660Y202384D01*
X295965Y200072D01*
Y199964D01*
X295954Y199853D01*
X295965D01*
Y175260D01*
X296251Y173823D01*
X296251Y173823D01*
X296251Y173823D01*
X297065Y172605D01*
X325882Y143787D01*
Y130810D01*
X325374Y130302D01*
X241410D01*
Y137022D01*
X242638D01*
Y147350D01*
X264256D01*
X265042Y147194D01*
Y143122D01*
X283598D01*
Y147194D01*
X284384Y147350D01*
X289656D01*
X291371Y147009D01*
X292995Y145924D01*
X293103Y145783D01*
X293091Y145771D01*
X293305Y145628D01*
X295041Y144296D01*
X297298Y143361D01*
X299720Y143042D01*
X302142Y143361D01*
X304399Y144296D01*
X306337Y145783D01*
X307824Y147721D01*
X308759Y149978D01*
X309078Y152400D01*
X308759Y154822D01*
X307824Y157079D01*
X306337Y159017D01*
X304399Y160504D01*
X302142Y161439D01*
X299720Y161758D01*
X297298Y161439D01*
X295041Y160504D01*
X293305Y159172D01*
X293091Y159029D01*
X293103Y159017D01*
X292995Y158876D01*
X291371Y157791D01*
X289656Y157450D01*
X284384D01*
X283598Y157606D01*
Y161678D01*
X265042D01*
Y157606D01*
X264256Y157450D01*
X242638D01*
Y159578D01*
X230082D01*
Y137022D01*
X231310D01*
Y130302D01*
X193468D01*
Y135502D01*
X193501D01*
X193479Y135675D01*
X193747Y137022D01*
X196638D01*
Y159578D01*
X184082D01*
Y137022D01*
X186973D01*
X187241Y135675D01*
X187218Y135502D01*
X187252D01*
Y130302D01*
X122255D01*
Y136906D01*
X121969Y138343D01*
X121855Y138514D01*
Y182182D01*
X123878D01*
Y193738D01*
X121855D01*
Y203002D01*
X122837Y203808D01*
X124160Y203545D01*
X188524D01*
Y203510D01*
X188873Y203545D01*
X189060D01*
X192316Y203116D01*
X195582Y201763D01*
Y196022D01*
X207823D01*
X209176Y192756D01*
X209605Y189500D01*
Y189313D01*
X209571Y188964D01*
X209605D01*
Y159578D01*
X207082D01*
Y137022D01*
X219638D01*
Y159578D01*
X217115D01*
Y188964D01*
X217150D01*
X217115Y189313D01*
Y189500D01*
X217544Y192756D01*
X218897Y196022D01*
X231138D01*
Y202391D01*
X232905Y203900D01*
X236928Y206366D01*
X241287Y208171D01*
X242305Y208415D01*
X243302Y207629D01*
Y206582D01*
X257858D01*
Y220138D01*
X243302D01*
Y217236D01*
X243302D01*
X242608Y217139D01*
Y217139D01*
X242608D01*
X242608Y217135D01*
X242007D01*
Y217135D01*
X241756Y217115D01*
X233436D01*
Y217149D01*
X233088Y217115D01*
X231138D01*
Y218578D01*
X226341D01*
X226259Y218987D01*
Y222480D01*
X226293Y222821D01*
X226259D01*
Y231716D01*
X226283Y232019D01*
X226259D01*
Y335957D01*
X230529Y340227D01*
X231703Y339741D01*
D02*
G37*
G36*
X315154Y222089D02*
Y200914D01*
X315154Y200914D01*
X315154D01*
X315391Y199725D01*
X316064Y198717D01*
X325882Y188899D01*
Y156068D01*
X324709Y155582D01*
X303475Y176815D01*
Y199853D01*
X303486D01*
X303475Y199964D01*
Y200072D01*
X303780Y202384D01*
X304757Y204743D01*
X306225Y206657D01*
X306337Y206743D01*
X307824Y208681D01*
X308759Y210938D01*
X309078Y213360D01*
X309060Y213500D01*
X309375Y215891D01*
X310352Y218251D01*
X311772Y220101D01*
X311847Y220177D01*
X311934Y220248D01*
Y220248D01*
Y220264D01*
X313558Y221888D01*
X313939Y222457D01*
X315154Y222089D01*
D02*
G37*
G36*
X9537Y218832D02*
X9536Y218832D01*
X9542Y218827D01*
X13961Y214408D01*
X13961Y214408D01*
X13940Y214387D01*
X14122Y214247D01*
X16199Y212171D01*
X16361Y210938D01*
X17296Y208681D01*
X17683Y208176D01*
X17747Y207856D01*
X18530Y206683D01*
X18530Y206683D01*
X18536Y206682D01*
D01*
X18681Y206506D01*
X21155Y204476D01*
X23978Y202967D01*
X26463Y202213D01*
X26757Y202017D01*
Y202017D01*
X26757Y202017D01*
D01*
D01*
D01*
X26757D01*
Y202017D01*
D01*
X26757Y202017D01*
X26757Y202017D01*
X28194Y201731D01*
X30160D01*
X30225Y201724D01*
Y201731D01*
X38746D01*
X39242Y201682D01*
Y201731D01*
X47849D01*
X48259Y201699D01*
Y201731D01*
X55722D01*
X87134Y170319D01*
X88352Y169505D01*
X88591Y169457D01*
X89789Y169219D01*
X99823D01*
X101260Y169505D01*
X102478Y170319D01*
Y170319D01*
X102478D01*
D01*
D01*
D01*
D01*
D01*
D01*
X102478D01*
D01*
X102478D01*
Y170319D01*
D01*
D01*
D01*
D01*
Y170319D01*
D01*
D01*
D01*
D01*
D01*
D01*
Y170319D01*
D01*
D01*
X102478D01*
D01*
D01*
D01*
X111938Y179779D01*
X112752Y180997D01*
X112988Y182182D01*
X114345D01*
Y137306D01*
X114630Y135869D01*
X114745Y135698D01*
Y130302D01*
X28995D01*
X28424Y131679D01*
X26937Y133617D01*
X24999Y135104D01*
X22742Y136039D01*
X20320Y136358D01*
X17898Y136039D01*
X15641Y135104D01*
X13703Y133617D01*
X12216Y131679D01*
X11645Y130302D01*
X7292D01*
Y219418D01*
X8465Y219904D01*
X9537Y218832D01*
D02*
G37*
G36*
X302817Y381450D02*
X305704Y380254D01*
X307964Y378520D01*
X308138Y378308D01*
X308138Y378308D01*
X308158Y378327D01*
X322012Y364473D01*
Y349279D01*
X320797Y348910D01*
X320460Y349416D01*
X312553Y357322D01*
X312553Y357322D01*
X312572Y357342D01*
X312360Y357516D01*
X310626Y359776D01*
X309430Y362663D01*
X309050Y365549D01*
X309078Y365760D01*
X308759Y368182D01*
X307824Y370439D01*
X306337Y372377D01*
X304399Y373864D01*
X302142Y374799D01*
X299720Y375118D01*
X298211Y374919D01*
X297649Y376058D01*
X301917Y380326D01*
X302321Y380931D01*
X302591Y381335D01*
X302619Y381476D01*
X302817Y381450D01*
D02*
G37*
G36*
X57797Y337805D02*
X59015Y336991D01*
X60452Y336705D01*
X60915D01*
X60915Y336679D01*
X60915D01*
Y336679D01*
X61722Y336565D01*
Y333602D01*
Y320902D01*
Y318582D01*
X59674Y318175D01*
X59382Y318214D01*
Y318168D01*
X45566D01*
X45063Y318068D01*
X40441D01*
Y318095D01*
X40167Y318069D01*
X37343Y318440D01*
X34457Y319636D01*
X32146Y321409D01*
X32017Y321577D01*
X30079Y323064D01*
X27822Y323999D01*
X25400Y324318D01*
X22978Y323999D01*
X20721Y323064D01*
X18783Y321577D01*
X17296Y319639D01*
X16361Y317382D01*
X16042Y314960D01*
X16361Y312538D01*
X17296Y310281D01*
X18783Y308343D01*
X20721Y306856D01*
X22978Y305921D01*
X25400Y305602D01*
X27822Y305921D01*
X30079Y306856D01*
X32017Y308343D01*
X32146Y308511D01*
X34457Y310284D01*
X37343Y311480D01*
X40167Y311851D01*
X40441Y311824D01*
Y311852D01*
X45466D01*
X45969Y311952D01*
X59382D01*
Y311906D01*
X59674Y311945D01*
X61722Y311538D01*
Y308202D01*
Y305870D01*
X61624Y305804D01*
X59636Y305409D01*
X59623Y305411D01*
Y305406D01*
X59429Y305368D01*
X57984D01*
Y305382D01*
X57873Y305371D01*
X55611Y305669D01*
X53400Y306585D01*
X51567Y307991D01*
X51517Y308057D01*
X49819Y309360D01*
X47842Y310179D01*
X45720Y310458D01*
X43598Y310179D01*
X41621Y309360D01*
X39923Y308057D01*
X38620Y306359D01*
X37801Y304382D01*
X37522Y302260D01*
X37801Y300138D01*
X38620Y298161D01*
X39923Y296463D01*
X41621Y295160D01*
X43598Y294341D01*
X45720Y294062D01*
X47842Y294341D01*
X49819Y295160D01*
X51517Y296463D01*
X51567Y296529D01*
X53400Y297935D01*
X55611Y298851D01*
X57873Y299149D01*
X57984Y299138D01*
Y299138D01*
X59106D01*
X59140Y299103D01*
Y299103D01*
X59512Y299152D01*
X59845D01*
X61722Y298779D01*
Y295502D01*
Y293183D01*
X59674Y292775D01*
X59382Y292814D01*
Y292768D01*
X45820D01*
X44631Y292531D01*
X43623Y291858D01*
X41710Y289944D01*
X41058Y289859D01*
X39081Y289040D01*
X37383Y287737D01*
X36080Y286039D01*
X35261Y284062D01*
X34982Y281940D01*
X35261Y279818D01*
X36080Y277841D01*
X37383Y276143D01*
X39081Y274840D01*
X41058Y274021D01*
X43180Y273742D01*
X45302Y274021D01*
X47279Y274840D01*
X48977Y276143D01*
X50280Y277841D01*
X51099Y279818D01*
X51378Y281940D01*
X51099Y284062D01*
X50280Y286039D01*
X50533Y286552D01*
X59382D01*
Y286506D01*
X59674Y286545D01*
X61722Y286138D01*
Y282802D01*
Y280483D01*
X59674Y280075D01*
X59382Y280114D01*
Y280068D01*
X58520D01*
X57331Y279831D01*
X56323Y279158D01*
X37430Y260265D01*
X37406Y260289D01*
X37123Y259958D01*
X33094Y255929D01*
X33094Y255929D01*
X33053Y255969D01*
X32681Y255516D01*
X28758Y251593D01*
X28738Y251612D01*
X28558Y251393D01*
X25265Y248100D01*
X22978Y247799D01*
X20721Y246864D01*
X18783Y245377D01*
X17296Y243439D01*
X16361Y241182D01*
X16042Y238760D01*
X16361Y236338D01*
X17296Y234081D01*
X18783Y232143D01*
X20721Y230656D01*
X22978Y229721D01*
X25400Y229402D01*
X27822Y229721D01*
X30079Y230656D01*
X32017Y232143D01*
X33504Y234081D01*
X34439Y236338D01*
X34758Y238760D01*
X34718Y239063D01*
X35154Y243490D01*
X36534Y248039D01*
X38774Y252231D01*
X41470Y255515D01*
X59779Y273824D01*
X61722Y273438D01*
Y270102D01*
Y257402D01*
X76509D01*
Y251196D01*
X76795Y249759D01*
X77609Y248540D01*
X105838Y220311D01*
X105352Y219138D01*
X101900D01*
X101600Y219198D01*
Y219198D01*
X100267Y219463D01*
X99197Y220179D01*
X99154Y220235D01*
X99137Y220218D01*
X89066Y230289D01*
X88057Y230963D01*
X86868Y231200D01*
X82368D01*
Y231214D01*
X82257Y231203D01*
X79995Y231501D01*
X77784Y232417D01*
X75951Y233823D01*
X75901Y233889D01*
X74203Y235192D01*
X72226Y236011D01*
X70104Y236290D01*
X67982Y236011D01*
X66005Y235192D01*
X64307Y233889D01*
X63004Y232191D01*
X62185Y230214D01*
X61906Y228092D01*
X62185Y225970D01*
X63004Y223993D01*
X64307Y222295D01*
X66005Y220992D01*
X67982Y220173D01*
X70104Y219894D01*
X72226Y220173D01*
X74203Y220992D01*
X75901Y222295D01*
X75951Y222361D01*
X77784Y223767D01*
X79995Y224683D01*
X82257Y224981D01*
X82368Y224970D01*
Y224984D01*
X85581D01*
X94742Y215823D01*
X94742Y215823D01*
X94726Y215806D01*
X94782Y215763D01*
X95497Y214693D01*
X95762Y213360D01*
X95762D01*
X95822Y213060D01*
Y207582D01*
X105368D01*
X105967Y206462D01*
X105306Y205473D01*
X105020Y204036D01*
Y193993D01*
X104811Y193738D01*
X101900D01*
X101600Y193798D01*
Y193798D01*
X101559Y193762D01*
X98307Y194190D01*
X96265Y195036D01*
X95865Y196001D01*
X95563Y198292D01*
X95574Y198374D01*
X95295Y200496D01*
X94476Y202473D01*
X93173Y204171D01*
X91475Y205474D01*
X89498Y206293D01*
X87376Y206572D01*
X85254Y206293D01*
X83277Y205474D01*
X81579Y204171D01*
X80276Y202473D01*
X79457Y200496D01*
X79178Y198374D01*
X79457Y196252D01*
X80276Y194275D01*
X81579Y192577D01*
X83277Y191274D01*
X85254Y190455D01*
X87376Y190176D01*
X87458Y190187D01*
X89749Y189885D01*
X91960Y188969D01*
X93770Y187580D01*
X93841Y187494D01*
X93840Y187494D01*
X93851Y187504D01*
X95592Y185763D01*
X95822Y185609D01*
Y182182D01*
X102061D01*
X102547Y181009D01*
X98267Y176729D01*
X91345D01*
X59933Y208141D01*
X58714Y208955D01*
X57277Y209241D01*
X56595D01*
X51776Y209620D01*
X46412Y210908D01*
X41315Y213019D01*
X36611Y215902D01*
X32417Y219485D01*
X32206Y219731D01*
X32084Y219890D01*
X32067Y219915D01*
X32062Y219918D01*
X32017Y219977D01*
X30079Y221464D01*
X27822Y222399D01*
X25400Y222718D01*
X22978Y222399D01*
X22634Y222257D01*
Y222257D01*
X22552Y222295D01*
X22552Y222295D01*
X22221Y222158D01*
X20243Y221898D01*
X18265Y222158D01*
X16423Y222921D01*
X14904Y224086D01*
X13407Y225583D01*
Y345440D01*
D01*
D01*
D01*
D01*
X13407D01*
D01*
D01*
D01*
D01*
Y345440D01*
X13407D01*
D01*
Y345440D01*
D01*
D01*
D01*
D01*
D01*
D01*
D01*
D01*
D01*
D01*
D01*
D01*
Y345440D01*
D01*
X13407D01*
D01*
D01*
D01*
D01*
X13407Y345440D01*
Y348457D01*
X14255Y349305D01*
X19841D01*
X20249Y348102D01*
X18783Y346977D01*
X17296Y345039D01*
X16361Y342782D01*
X16042Y340360D01*
X16361Y337938D01*
X17296Y335681D01*
X18783Y333743D01*
X20721Y332256D01*
X22978Y331321D01*
X25400Y331002D01*
X27822Y331321D01*
X30079Y332256D01*
X32017Y333743D01*
X33504Y335681D01*
X34439Y337938D01*
X34758Y340360D01*
X34439Y342782D01*
X33504Y345039D01*
X32017Y346977D01*
X30079Y348464D01*
X30246Y349305D01*
X46297D01*
X57797Y337805D01*
D02*
G37*
G36*
X286887Y272598D02*
X286887Y272598D01*
X286868Y272578D01*
X287080Y272404D01*
X288814Y270144D01*
X290010Y267257D01*
X290390Y264371D01*
X290362Y264160D01*
X290681Y261738D01*
X291616Y259481D01*
X293103Y257543D01*
X293245Y257434D01*
X292837Y256231D01*
X258318D01*
Y257402D01*
X258318D01*
Y270102D01*
Y273438D01*
X260366Y273845D01*
X260658Y273806D01*
Y273852D01*
X285633D01*
X286887Y272598D01*
D02*
G37*
G36*
X325882Y371052D02*
X324709Y370566D01*
X312553Y382722D01*
X312572Y382742D01*
X312360Y382916D01*
X310626Y385176D01*
X309430Y388063D01*
X309050Y390949D01*
X309078Y391160D01*
X308759Y393582D01*
X307824Y395839D01*
X306337Y397777D01*
X304399Y399264D01*
X302142Y400199D01*
X299720Y400518D01*
X297298Y400199D01*
X295041Y399264D01*
X293103Y397777D01*
X291616Y395839D01*
X291392Y395298D01*
X290146Y395546D01*
Y402591D01*
X291282Y403727D01*
X291282Y403727D01*
X291302Y403708D01*
X291476Y403920D01*
X293736Y405654D01*
X296623Y406850D01*
X299509Y407230D01*
X299720Y407202D01*
X302142Y407521D01*
X304399Y408456D01*
X306337Y409943D01*
X307824Y411881D01*
X308759Y414138D01*
X309078Y416560D01*
X308759Y418982D01*
X307824Y421239D01*
X306337Y423177D01*
X304399Y424664D01*
X302142Y425599D01*
X299720Y425918D01*
X297298Y425599D01*
X295041Y424664D01*
X293103Y423177D01*
X291616Y421239D01*
X290681Y418982D01*
X290362Y416560D01*
X290390Y416349D01*
X290010Y413462D01*
X288814Y410576D01*
X287080Y408316D01*
X286868Y408142D01*
X286887Y408122D01*
X286887Y408122D01*
X285205Y406440D01*
X284032Y406926D01*
Y421877D01*
X291282Y429127D01*
X291282Y429127D01*
X291302Y429108D01*
X291476Y429320D01*
X293736Y431054D01*
X296623Y432250D01*
X299509Y432630D01*
X299720Y432602D01*
X302142Y432921D01*
X304399Y433856D01*
X306337Y435343D01*
X307824Y437281D01*
X308759Y439538D01*
X309078Y441960D01*
X308759Y444382D01*
X307824Y446639D01*
X306337Y448577D01*
X304399Y450064D01*
X302142Y450999D01*
X299720Y451318D01*
X297298Y450999D01*
X295041Y450064D01*
X293103Y448577D01*
X291616Y446639D01*
X290681Y444382D01*
X290362Y441960D01*
X290390Y441749D01*
X290010Y438862D01*
X288814Y435976D01*
X287080Y433716D01*
X286868Y433542D01*
X286887Y433522D01*
X286887Y433522D01*
X278727Y425362D01*
X278053Y424353D01*
X277816Y423164D01*
Y392447D01*
X267137Y381768D01*
X260658D01*
Y381814D01*
X260366Y381775D01*
X258318Y382183D01*
Y384502D01*
Y397202D01*
Y409902D01*
Y415467D01*
X259308Y416457D01*
X259333Y416476D01*
X259333Y416476D01*
X259330Y416479D01*
X261711Y418860D01*
X261786Y418917D01*
Y418917D01*
X261795Y418924D01*
X261795Y418924D01*
X261795Y418924D01*
X261795D01*
X261786Y418935D01*
D01*
D01*
Y418935D01*
D01*
D01*
D01*
D01*
X261786D01*
D01*
D01*
D01*
D01*
D01*
D01*
X262459Y419943D01*
X262696Y421132D01*
Y425941D01*
X291282Y454527D01*
X291282Y454527D01*
X291302Y454508D01*
X291476Y454720D01*
X293736Y456454D01*
X296623Y457650D01*
X299509Y458030D01*
X299720Y458002D01*
X302142Y458321D01*
X304399Y459256D01*
X306337Y460743D01*
X307824Y462681D01*
X308759Y464938D01*
X309078Y467360D01*
X308759Y469782D01*
X307824Y472039D01*
X306337Y473977D01*
X304399Y475464D01*
X302142Y476399D01*
X299720Y476718D01*
X297298Y476399D01*
X295041Y475464D01*
X293103Y473977D01*
X291616Y472039D01*
X290681Y469782D01*
X290362Y467360D01*
X290390Y467149D01*
X290010Y464263D01*
X288814Y461376D01*
X287080Y459116D01*
X286868Y458942D01*
X286887Y458922D01*
X286887Y458922D01*
X259491Y431526D01*
X258318Y432012D01*
Y435102D01*
Y447802D01*
Y460502D01*
Y473202D01*
Y485902D01*
Y498602D01*
Y512318D01*
X239522D01*
Y509355D01*
X238715Y509241D01*
Y509241D01*
X238715D01*
X238715Y509215D01*
X204978D01*
Y527558D01*
X203028D01*
X202271Y528578D01*
X203017Y531037D01*
X204345Y533522D01*
X208781D01*
Y582132D01*
X325882D01*
Y371052D01*
D02*
G37*
G36*
X83343Y495621D02*
X85756Y493642D01*
X90225Y489173D01*
Y458247D01*
X85756Y453778D01*
X83343Y451799D01*
X81607Y450871D01*
X80518Y451524D01*
Y460502D01*
Y473202D01*
Y485902D01*
Y495896D01*
X81607Y496549D01*
X83343Y495621D01*
D02*
G37*
G36*
X52609Y483508D02*
X52070Y482416D01*
X49948Y482137D01*
X47971Y481318D01*
X46273Y480015D01*
X44970Y478317D01*
X44151Y476340D01*
X43988Y475098D01*
X42785Y474690D01*
X41470Y476005D01*
X38774Y479289D01*
X36534Y483481D01*
X35154Y488030D01*
X34693Y492711D01*
X34738Y492760D01*
X34738D01*
X34678Y493060D01*
Y499780D01*
X35851Y500266D01*
X52609Y483508D01*
D02*
G37*
G36*
X191725Y533522D02*
X194365D01*
Y528365D01*
X194339Y528365D01*
Y528365D01*
X188208Y527558D01*
X176243D01*
X175835Y529606D01*
X175874Y529898D01*
X175828D01*
Y530070D01*
X176145Y532480D01*
X176991Y534522D01*
X181031D01*
Y580078D01*
X164775D01*
Y534522D01*
X168712D01*
X169327Y533037D01*
X169612Y530871D01*
Y530121D01*
X169595Y529944D01*
X169595D01*
Y529927D01*
X169566Y529898D01*
X169566D01*
X169605Y529606D01*
X169198Y527558D01*
X144532D01*
X138401Y528365D01*
Y528365D01*
X138375Y528365D01*
Y533522D01*
X153181D01*
Y582132D01*
X191725D01*
Y533522D01*
D02*
G37*
G36*
X136125Y555583D02*
X131965Y551422D01*
X131151Y550204D01*
X130865Y548767D01*
Y528365D01*
X130839Y528365D01*
Y528365D01*
X124708Y527558D01*
X115062D01*
Y522055D01*
X114255Y521941D01*
Y521941D01*
X114255D01*
X114255Y521915D01*
X83820D01*
X82383Y521629D01*
X81165Y520815D01*
X78230Y517880D01*
X78212D01*
X78212Y517880D01*
Y517880D01*
X78212Y517880D01*
X78132Y517782D01*
X72667Y512318D01*
X61722D01*
Y498602D01*
Y485902D01*
Y484844D01*
X60549Y484358D01*
X38556Y506351D01*
X38566Y506362D01*
X38480Y506432D01*
X37091Y508242D01*
X36175Y510453D01*
X35873Y512744D01*
X35884Y512826D01*
X35605Y514948D01*
X34786Y516925D01*
X33483Y518623D01*
X31785Y519926D01*
X29808Y520745D01*
X27686Y521024D01*
X25564Y520745D01*
X23587Y519926D01*
X21889Y518623D01*
X20586Y516925D01*
X19767Y514948D01*
X19488Y512826D01*
X19767Y510704D01*
X20586Y508727D01*
X21889Y507029D01*
X23587Y505726D01*
X25564Y504907D01*
X27686Y504628D01*
X27768Y504639D01*
X30059Y504337D01*
X32270Y503421D01*
X32505Y503241D01*
X32097Y502038D01*
X16122D01*
Y492957D01*
X12767Y489602D01*
X12548Y489422D01*
X12567Y489402D01*
X8644Y485479D01*
X8191Y485107D01*
X8231Y485066D01*
X8231Y485066D01*
X4202Y481037D01*
X3871Y480754D01*
X3895Y480730D01*
X3241Y480076D01*
X2068Y480562D01*
Y582132D01*
X136125D01*
Y555583D01*
D02*
G37*
G36*
X239522Y490341D02*
Y485902D01*
Y473202D01*
Y460502D01*
Y447802D01*
Y435102D01*
Y433790D01*
X238349Y433304D01*
X233486Y438167D01*
Y480496D01*
X233500D01*
X233489Y480607D01*
X233787Y482869D01*
X234703Y485080D01*
X236109Y486913D01*
X236175Y486963D01*
X237478Y488661D01*
X238276Y490589D01*
X239522Y490341D01*
D02*
G37*
G36*
X167579Y401405D02*
X168797Y400591D01*
X170234Y400305D01*
X181579D01*
X182935Y398949D01*
Y258381D01*
X182883D01*
X182911Y258164D01*
X182702Y256574D01*
X182005Y254891D01*
X180902Y253454D01*
X180893Y253447D01*
X180892Y253448D01*
X180874Y253423D01*
X179590Y251749D01*
X178771Y249772D01*
X178492Y247650D01*
X178771Y245528D01*
X179590Y243551D01*
X180893Y241853D01*
X182591Y240550D01*
X184568Y239731D01*
X186690Y239452D01*
X188812Y239731D01*
X190789Y240550D01*
X192487Y241853D01*
X193790Y243551D01*
X194609Y245528D01*
X194888Y247650D01*
X194609Y249772D01*
X193790Y251749D01*
X192506Y253423D01*
X192488Y253448D01*
X192487Y253447D01*
X192478Y253454D01*
X191376Y254891D01*
X190678Y256574D01*
X190469Y258164D01*
X190497Y258381D01*
X190445D01*
Y398749D01*
X192002Y400305D01*
X238715D01*
X238715Y400279D01*
X238715D01*
Y400279D01*
X239522Y400165D01*
Y397202D01*
Y394976D01*
X238585Y394257D01*
X238582Y394260D01*
X238484Y394114D01*
X238337Y394015D01*
X236214Y391893D01*
X235917Y391664D01*
X235951Y391630D01*
X232549Y388227D01*
X231735Y387009D01*
X231449Y385572D01*
Y359048D01*
X231735Y357611D01*
X232549Y356393D01*
X234312Y354630D01*
X219849Y340167D01*
X219035Y338949D01*
X218749Y337512D01*
Y231419D01*
X218353Y227402D01*
X217006Y222962D01*
X214819Y218870D01*
X214579Y218578D01*
X195582D01*
Y212837D01*
X192316Y211484D01*
X189060Y211055D01*
X188873D01*
X188524Y211090D01*
Y211055D01*
X125715D01*
X124332Y212439D01*
X124334Y212441D01*
X124334D01*
X124334Y212441D01*
X123950Y213360D01*
X123950D01*
X123878Y213723D01*
Y219138D01*
X118463D01*
X118100Y219210D01*
Y219210D01*
X117185Y219589D01*
X117181Y219594D01*
X117179Y219592D01*
X84019Y252751D01*
Y264260D01*
X83733Y265697D01*
X82919Y266915D01*
X81701Y267729D01*
X80518Y267965D01*
Y270102D01*
Y282802D01*
Y295502D01*
Y308202D01*
Y320902D01*
Y333602D01*
Y346402D01*
Y348591D01*
X81538Y349347D01*
X83463Y348764D01*
X86667Y347051D01*
X89367Y344836D01*
X89453Y344723D01*
X91151Y343420D01*
X93128Y342601D01*
X95250Y342322D01*
X97372Y342601D01*
X99349Y343420D01*
X101047Y344723D01*
X102350Y346421D01*
X103169Y348398D01*
X103448Y350520D01*
X103169Y352642D01*
X102350Y354619D01*
X101047Y356317D01*
X99349Y357620D01*
X97372Y358439D01*
X95250Y358718D01*
X93128Y358439D01*
X91151Y357620D01*
X89519Y356368D01*
X88994D01*
X88635Y356415D01*
Y356368D01*
X82858D01*
X82858Y356388D01*
D01*
Y356396D01*
Y356398D01*
X82858Y356408D01*
Y356414D01*
Y356414D01*
D01*
D01*
X82858D01*
D01*
D01*
X82856Y356414D01*
X82855Y356413D01*
D01*
D01*
D01*
X82737Y356398D01*
X82503D01*
X82503D01*
X82452Y356398D01*
X80518Y356783D01*
Y359102D01*
Y371802D01*
Y384502D01*
Y397202D01*
Y398209D01*
X81607Y398862D01*
X85635Y396710D01*
X89277Y393720D01*
X89453Y393491D01*
X91151Y392188D01*
X93128Y391369D01*
X95250Y391090D01*
X97372Y391369D01*
X99349Y392188D01*
X101047Y393491D01*
X102350Y395189D01*
X103169Y397166D01*
X103448Y399288D01*
X103169Y401410D01*
X102350Y403387D01*
X101047Y405085D01*
X99349Y406388D01*
X97372Y407207D01*
X95250Y407486D01*
X93128Y407207D01*
X92368Y406892D01*
X90878Y407088D01*
X90478Y407168D01*
X90273D01*
X89861Y407222D01*
Y407168D01*
X84073D01*
X83729Y407202D01*
Y407202D01*
X82870D01*
X82858Y407214D01*
Y407214D01*
X82566Y407175D01*
X80518Y407583D01*
Y409902D01*
Y413238D01*
X82566Y413645D01*
X82858Y413606D01*
Y413638D01*
X82986D01*
Y413638D01*
X83097Y413649D01*
X85359Y413351D01*
X87570Y412435D01*
X89403Y411029D01*
X89453Y410963D01*
X91151Y409660D01*
X93128Y408841D01*
X95250Y408562D01*
X97372Y408841D01*
X99349Y409660D01*
X101047Y410963D01*
X102350Y412661D01*
X103169Y414638D01*
X103448Y416760D01*
X103169Y418882D01*
X102350Y420859D01*
X101047Y422557D01*
X99349Y423860D01*
X97372Y424679D01*
X95250Y424958D01*
X95997Y425705D01*
X143278D01*
X167579Y401405D01*
D02*
G37*
G36*
X28558Y480127D02*
X28738Y479908D01*
X28758Y479927D01*
X32681Y476004D01*
X33053Y475551D01*
X33094Y475591D01*
X33094Y475591D01*
X37123Y471562D01*
X37406Y471231D01*
X37430Y471255D01*
X41311Y467374D01*
Y464820D01*
X41311Y464820D01*
X41311D01*
X41547Y463631D01*
X42221Y462622D01*
X52381Y452463D01*
X53389Y451789D01*
Y451789D01*
X53389Y451789D01*
D01*
D01*
D01*
X53389D01*
Y451789D01*
D01*
X53389Y451789D01*
X53389Y451789D01*
X54578Y451552D01*
X59382D01*
Y451506D01*
X59674Y451545D01*
X61722Y451138D01*
Y447802D01*
Y445855D01*
X60915Y445741D01*
Y445741D01*
X60915D01*
X60915Y445715D01*
X55880D01*
X54681Y445477D01*
X54443Y445429D01*
X53225Y444615D01*
X43065Y434455D01*
X42251Y433237D01*
X41965Y431800D01*
Y420655D01*
X35683Y414374D01*
X34544Y414935D01*
X34758Y416560D01*
X34439Y418982D01*
X33504Y421239D01*
X32017Y423177D01*
X30079Y424664D01*
X27822Y425599D01*
X25400Y425918D01*
X22978Y425599D01*
X20721Y424664D01*
X18783Y423177D01*
X17296Y421239D01*
X16361Y418982D01*
X16042Y416560D01*
X16361Y414138D01*
X17296Y411881D01*
X18783Y409943D01*
X20249Y408818D01*
X19841Y407615D01*
X15240D01*
X13803Y407329D01*
X12585Y406515D01*
X8465Y402396D01*
X7292Y402882D01*
Y475337D01*
X8645Y476690D01*
X11929Y479385D01*
X16121Y481626D01*
X20670Y483006D01*
X25230Y483455D01*
X28558Y480127D01*
D02*
G37*
G36*
X114255Y514379D02*
X114255Y514379D01*
Y514379D01*
X115062Y514265D01*
Y508762D01*
X131548D01*
X131965Y508139D01*
X133282Y506822D01*
X133391Y506680D01*
X133407Y506697D01*
X138640Y501463D01*
X138690Y501403D01*
X138695Y501408D01*
X141109Y498995D01*
X141109Y498995D01*
X141109D01*
X141109Y498995D01*
X141109D01*
X141109Y498995D01*
Y498995D01*
Y498995D01*
D01*
D01*
X141109D01*
Y498995D01*
X142327Y498181D01*
X143764Y497895D01*
X151638D01*
X153075Y498181D01*
X154293Y498995D01*
Y498995D01*
X154293D01*
D01*
D01*
D01*
D01*
D01*
D01*
X154293D01*
D01*
X154293D01*
Y498995D01*
D01*
D01*
D01*
D01*
Y498995D01*
D01*
D01*
D01*
D01*
D01*
D01*
Y498995D01*
D01*
D01*
X154293D01*
D01*
D01*
D01*
X157088Y501789D01*
X157088Y501789D01*
X157122Y501755D01*
X157346Y502047D01*
X158846Y503548D01*
X160112Y503443D01*
X162044Y500737D01*
X162271Y500524D01*
X162445Y500265D01*
X162800Y500027D01*
X163112Y499734D01*
X163404Y499624D01*
X163663Y499451D01*
X164083Y499367D01*
X164483Y499216D01*
X164794Y499226D01*
X165100Y499165D01*
X180340D01*
X181777Y499451D01*
X182995Y500265D01*
Y500265D01*
X182995D01*
D01*
D01*
D01*
D01*
D01*
D01*
X182995D01*
D01*
X182995D01*
Y500265D01*
D01*
D01*
D01*
D01*
Y500265D01*
D01*
D01*
D01*
D01*
D01*
D01*
Y500265D01*
D01*
D01*
X182995D01*
D01*
D01*
D01*
X188075Y505345D01*
X188889Y506563D01*
X189175Y508000D01*
Y508000D01*
X189200D01*
X189183Y508132D01*
X189308Y508762D01*
X194232D01*
X194232Y508762D01*
D01*
X194340Y508000D01*
X194340D01*
X194340Y508000D01*
D01*
D01*
D01*
X194365Y508000D01*
X194651Y506563D01*
X194651Y506563D01*
X194651Y506563D01*
X195465Y505345D01*
X198005Y502805D01*
X199223Y501991D01*
X199461Y501943D01*
X200660Y501705D01*
X227478D01*
X227726Y500459D01*
X226279Y499860D01*
X224581Y498557D01*
X223278Y496859D01*
X222459Y494882D01*
X222180Y492760D01*
X222459Y490638D01*
X223278Y488661D01*
X224581Y486963D01*
X224647Y486913D01*
X226053Y485080D01*
X226969Y482869D01*
X227267Y480607D01*
X227256Y480496D01*
X227270D01*
Y436880D01*
X227270Y436880D01*
X227270D01*
X227507Y435691D01*
X228181Y434683D01*
X235600Y427263D01*
X236609Y426589D01*
X237798Y426352D01*
X237798D01*
Y426319D01*
X237968Y426341D01*
X239522Y426032D01*
Y422602D01*
Y409902D01*
Y407955D01*
X238715Y407841D01*
Y407841D01*
X238715D01*
X238715Y407815D01*
X171789D01*
X147489Y432115D01*
X146271Y432929D01*
Y432929D01*
X146271D01*
D01*
D01*
D01*
D01*
X146271D01*
Y432929D01*
D01*
D01*
X146271Y432929D01*
X146271Y432929D01*
X146271Y432929D01*
X146271D01*
X144834Y433215D01*
X81325D01*
X81325Y433241D01*
X81325D01*
Y433241D01*
X80518Y433355D01*
Y435102D01*
Y438457D01*
X80685Y438491D01*
X81903Y439305D01*
X84745Y442147D01*
X84773Y442169D01*
X84771Y442172D01*
X90930Y448331D01*
X91275Y448614D01*
Y448614D01*
X91305Y448639D01*
D01*
X91309Y448642D01*
X91275Y448676D01*
X91275Y448676D01*
Y448676D01*
D01*
X91275D01*
D01*
X96635Y454037D01*
X97449Y455255D01*
X97735Y456692D01*
Y490728D01*
X97449Y492165D01*
X96635Y493383D01*
X91275Y498744D01*
X91309Y498778D01*
X90930Y499089D01*
X84771Y505248D01*
X84773Y505251D01*
X84745Y505273D01*
X84697Y505321D01*
X84697Y505322D01*
X84698Y505322D01*
X84693Y505326D01*
X81903Y508115D01*
X81787Y508193D01*
X81710Y508309D01*
X81707Y508307D01*
X81172Y508718D01*
X81908Y510497D01*
X83363Y512393D01*
X85375Y514405D01*
X114255D01*
X114255Y514379D01*
D02*
G37*
%LPC*%
G36*
X25400Y451318D02*
X22978Y450999D01*
X20721Y450064D01*
X18783Y448577D01*
X17296Y446639D01*
X16361Y444382D01*
X16042Y441960D01*
X16361Y439538D01*
X17296Y437281D01*
X18783Y435343D01*
X20721Y433856D01*
X22978Y432921D01*
X25400Y432602D01*
X27822Y432921D01*
X30079Y433856D01*
X32017Y435343D01*
X33504Y437281D01*
X34439Y439538D01*
X34758Y441960D01*
X34439Y444382D01*
X33504Y446639D01*
X32017Y448577D01*
X30079Y450064D01*
X27822Y450999D01*
X25400Y451318D01*
D02*
G37*
G36*
X20320Y161758D02*
X17898Y161439D01*
X15641Y160504D01*
X13703Y159017D01*
X12216Y157079D01*
X11281Y154822D01*
X10962Y152400D01*
X11281Y149978D01*
X12216Y147721D01*
X13703Y145783D01*
X15641Y144296D01*
X17898Y143361D01*
X20320Y143042D01*
X22742Y143361D01*
X24999Y144296D01*
X26937Y145783D01*
X28424Y147721D01*
X29359Y149978D01*
X29678Y152400D01*
X29359Y154822D01*
X28424Y157079D01*
X26937Y159017D01*
X24999Y160504D01*
X22742Y161439D01*
X20320Y161758D01*
D02*
G37*
G36*
X308998Y502038D02*
X290442D01*
Y483482D01*
X308998D01*
Y502038D01*
D02*
G37*
G36*
X25400Y298918D02*
X22978Y298599D01*
X20721Y297664D01*
X18783Y296177D01*
X17296Y294239D01*
X16361Y291982D01*
X16042Y289560D01*
X16361Y287138D01*
X17296Y284881D01*
X18783Y282943D01*
X20721Y281456D01*
X22978Y280521D01*
X25400Y280202D01*
X27822Y280521D01*
X30079Y281456D01*
X32017Y282943D01*
X33504Y284881D01*
X34439Y287138D01*
X34758Y289560D01*
X34439Y291982D01*
X33504Y294239D01*
X32017Y296177D01*
X30079Y297664D01*
X27822Y298599D01*
X25400Y298918D01*
D02*
G37*
G36*
Y476718D02*
X22978Y476399D01*
X20721Y475464D01*
X18783Y473977D01*
X17296Y472039D01*
X16361Y469782D01*
X16042Y467360D01*
X16361Y464938D01*
X17296Y462681D01*
X18783Y460743D01*
X20721Y459256D01*
X22978Y458321D01*
X25400Y458002D01*
X27822Y458321D01*
X30079Y459256D01*
X32017Y460743D01*
X33504Y462681D01*
X34439Y464938D01*
X34758Y467360D01*
X34439Y469782D01*
X33504Y472039D01*
X32017Y473977D01*
X30079Y475464D01*
X27822Y476399D01*
X25400Y476718D01*
D02*
G37*
G36*
Y273518D02*
X22978Y273199D01*
X20721Y272264D01*
X18783Y270777D01*
X17296Y268839D01*
X16361Y266582D01*
X16042Y264160D01*
X16361Y261738D01*
X17296Y259481D01*
X18783Y257543D01*
X20721Y256056D01*
X22978Y255121D01*
X25400Y254802D01*
X27822Y255121D01*
X30079Y256056D01*
X32017Y257543D01*
X33504Y259481D01*
X34439Y261738D01*
X34758Y264160D01*
X34439Y266582D01*
X33504Y268839D01*
X32017Y270777D01*
X30079Y272264D01*
X27822Y273199D01*
X25400Y273518D01*
D02*
G37*
%LPD*%
D10*
X242608Y213360D02*
G03*
X247892Y215548I0J7472D01*
G01*
Y211171D02*
G03*
X242608Y213360I-5283J-5283D01*
G01*
X813968Y49530D02*
G03*
X817475Y52295I0J3607D01*
G01*
X809837Y49530D02*
G03*
X817766Y52814I0J11212D01*
G01*
X818540Y50945D02*
G03*
X813150Y48712I0J-7622D01*
G01*
X822064Y73660D02*
G03*
X827266Y75814I0J7356D01*
G01*
X386207Y209670D02*
G03*
X388668Y203728I8403J0D01*
G01*
X384291D02*
G03*
X386207Y208353I-4625J4625D01*
G01*
X289480Y27872D02*
G03*
X291669Y22589I7472J0D01*
G01*
X287292D02*
G03*
X289480Y27872I-5283J5283D01*
G01*
X208200Y109152D02*
G03*
X210389Y103869I7472J0D01*
G01*
X206012D02*
G03*
X208200Y109152I-5283J5283D01*
G01*
X118100Y193018D02*
G03*
X119581Y189441I5058J0D01*
G01*
X116618D02*
G03*
X118100Y193018I-3576J3576D01*
G01*
Y182902D02*
G03*
X116618Y186479I-5058J0D01*
G01*
X119581D02*
G03*
X118100Y182902I3576J-3576D01*
G01*
X114523Y209784D02*
G03*
X116005Y213360I-3576J3576D01*
G01*
X118100Y211265D02*
G03*
X114523Y209784I0J-5058D01*
G01*
X118100Y208302D02*
G03*
X116618Y211879I-5058J0D01*
G01*
X119581D02*
G03*
X118100Y208302I3576J-3576D01*
G01*
X121676Y209784D02*
G03*
X118100Y211265I-3576J-3576D01*
G01*
X120195Y213360D02*
G03*
X121676Y209784I5058J0D01*
G01*
X114523Y216936D02*
G03*
X118100Y215455I3576J3576D01*
G01*
X116005Y213360D02*
G03*
X114523Y216936I-5058J0D01*
G01*
X374416Y20564D02*
G03*
X370840Y22045I-3576J-3576D01*
G01*
X372935Y24140D02*
G03*
X374416Y20564I5058J0D01*
G01*
Y27717D02*
G03*
X372935Y24140I3576J-3576D01*
G01*
X370840Y26235D02*
G03*
X374416Y27717I0J5058D01*
G01*
X365782Y24140D02*
G03*
X369359Y25622I0J5058D01*
G01*
Y22659D02*
G03*
X365782Y24140I-3576J-3576D01*
G01*
X841620Y477372D02*
G03*
X843808Y472089I7472J0D01*
G01*
X839431D02*
G03*
X841620Y477372I-5283J5283D01*
G01*
X849592Y469900D02*
G03*
X844308Y467711I0J-7472D01*
G01*
Y472089D02*
G03*
X849592Y469900I5283J5283D01*
G01*
X841620Y497692D02*
G03*
X843808Y492408I7472J0D01*
G01*
X839431D02*
G03*
X841620Y497692I-5283J5283D01*
G01*
Y482748D02*
G03*
X839431Y488032I-7472J0D01*
G01*
X843808D02*
G03*
X841620Y482748I5283J-5283D01*
G01*
X379768Y132080D02*
G03*
X385052Y134269I0J7472D01*
G01*
Y129892D02*
G03*
X379768Y132080I-5283J-5283D01*
G01*
X387740Y124608D02*
G03*
X385552Y129892I-7472J0D01*
G01*
X389929D02*
G03*
X387740Y124608I5283J-5283D01*
G01*
Y104288D02*
G03*
X385552Y109572I-7472J0D01*
G01*
X389929D02*
G03*
X387740Y104288I5283J-5283D01*
G01*
Y119232D02*
G03*
X389929Y113948I7472J0D01*
G01*
X385552D02*
G03*
X387740Y119232I-5283J5283D01*
G01*
Y98912D02*
G03*
X389929Y93629I7472J0D01*
G01*
X385552D02*
G03*
X387740Y98912I-5283J5283D01*
G01*
Y83968D02*
G03*
X385552Y89251I-7472J0D01*
G01*
X389929D02*
G03*
X387740Y83968I5283J-5283D01*
G01*
X841620Y414392D02*
G03*
X839480Y419404I-6939J0D01*
G01*
X843760D02*
G03*
X841620Y414392I4798J-5012D01*
G01*
X118500Y58272D02*
G03*
X120689Y52989I7472J0D01*
G01*
X116312D02*
G03*
X118500Y58272I-5283J5283D01*
G01*
Y45720D02*
G03*
X117081Y48050I-2621J0D01*
G01*
X119919D02*
G03*
X118500Y45720I1202J-2329D01*
G01*
Y78592D02*
G03*
X120689Y73309I7472J0D01*
G01*
X116312D02*
G03*
X118500Y78592I-5283J5283D01*
G01*
Y66040D02*
G03*
X117081Y68370I-2621J0D01*
G01*
X119919D02*
G03*
X118500Y66040I1202J-2329D01*
G01*
D02*
G03*
X117081Y68370I-2621J0D01*
G01*
X119919D02*
G03*
X118500Y66040I1202J-2329D01*
G01*
Y63648D02*
G03*
X116312Y68931I-7472J0D01*
G01*
X120689D02*
G03*
X118500Y63648I5283J-5283D01*
G01*
X129585Y518160D02*
G03*
X124165Y515915I0J-7665D01*
G01*
Y520405D02*
G03*
X129585Y518160I5420J5420D01*
G01*
X114255D02*
G03*
X119675Y520405I0J7665D01*
G01*
Y515915D02*
G03*
X114255Y518160I-5420J-5420D01*
G01*
X134620Y528365D02*
G03*
X136865Y522945I7665J0D01*
G01*
X132375D02*
G03*
X134620Y528365I-5420J5420D01*
G01*
X126955Y518160D02*
G03*
X132375Y520405I0J7665D01*
G01*
Y515915D02*
G03*
X126955Y518160I-5420J-5420D01*
G01*
X137756Y515124D02*
G03*
X141351Y504063I12653J-2002D01*
G01*
X133993Y515719D02*
G03*
X136062Y509352I7284J-1153D01*
G01*
X160020Y510032D02*
G03*
X158395Y512892I-3329J0D01*
G01*
X161645D02*
G03*
X160020Y510032I1704J-2860D01*
G01*
X154432Y504444D02*
G03*
X156984Y514690I-7245J7245D01*
G01*
X158913Y508926D02*
G03*
X160627Y515806I-4865J4865D01*
G01*
X162553Y513705D02*
G03*
X162457Y506620I4772J-3608D01*
G01*
X160020Y510032D02*
G03*
X158395Y512892I-3329J0D01*
G01*
X161645D02*
G03*
X160020Y510032I1704J-2860D01*
G01*
X193085Y518160D02*
G03*
X187665Y515915I0J-7665D01*
G01*
Y520405D02*
G03*
X193085Y518160I5420J5420D01*
G01*
X185420Y508000D02*
G03*
X183184Y513366I-7556J0D01*
G01*
X187656D02*
G03*
X185420Y508000I5320J-5365D01*
G01*
X190455Y518160D02*
G03*
X195875Y520405I0J7665D01*
G01*
Y515915D02*
G03*
X190455Y518160I-5420J-5420D01*
G01*
X198120Y508000D02*
G03*
X195884Y513366I-7556J0D01*
G01*
X200356D02*
G03*
X198120Y508000I5320J-5365D01*
G01*
Y528365D02*
G03*
X200365Y522945I7665J0D01*
G01*
X195875D02*
G03*
X198120Y528365I-5420J5420D01*
G01*
X79248Y441960D02*
G03*
X76388Y440335I0J-3329D01*
G01*
Y443585D02*
G03*
X79248Y441960I2860J1704D01*
G01*
X60915D02*
G03*
X66335Y444205I0J7665D01*
G01*
Y439715D02*
G03*
X60915Y441960I-5420J-5420D01*
G01*
X73660Y445135D02*
G03*
X88619Y451331I0J21156D01*
G01*
X73660Y441325D02*
G03*
X82115Y444827I0J11958D01*
G01*
X79248Y505460D02*
G03*
X76388Y503835I0J-3329D01*
G01*
Y507085D02*
G03*
X79248Y505460I2860J1704D01*
G01*
X80876Y515216D02*
G03*
X76835Y505460I9756J-9756D01*
G01*
X88619Y496089D02*
G03*
X73660Y502285I-14959J-14959D01*
G01*
X82115Y502593D02*
G03*
X73660Y506095I-8455J-8455D01*
G01*
X82042Y502666D02*
G03*
X75662Y502996I-3373J-3373D01*
G01*
X79054Y505654D02*
G03*
X73260Y505953I-3063J-3063D01*
G01*
X81325Y429460D02*
G03*
X75905Y427215I0J-7665D01*
G01*
Y431705D02*
G03*
X81325Y429460I5420J5420D01*
G01*
X80264Y264260D02*
G03*
X76140Y262277I0J-5280D01*
G01*
Y266243D02*
G03*
X80264Y264260I4124J3297D01*
G01*
X60915Y340460D02*
G03*
X66335Y342705I0J7665D01*
G01*
Y338215D02*
G03*
X60915Y340460I-5420J-5420D01*
G01*
D02*
G03*
X66335Y342705I0J7665D01*
G01*
Y338215D02*
G03*
X60915Y340460I-5420J-5420D01*
G01*
X252168Y261165D02*
G03*
X248920Y257091I931J-4074D01*
G01*
Y257556D02*
G03*
X246908Y261804I-5490J0D01*
G01*
X250932D02*
G03*
X248920Y257556I3478J-4247D01*
G01*
X238715Y404060D02*
G03*
X244135Y406305I0J7665D01*
G01*
Y401815D02*
G03*
X238715Y404060I-5420J-5420D01*
G01*
X244338Y388929D02*
G03*
X238298Y388666I-2877J-3425D01*
G01*
X246788Y391846D02*
G03*
X241237Y391605I-2644J-3148D01*
G01*
X246410Y391994D02*
G03*
X238606Y388974I-485J-10338D01*
G01*
X240992Y391360D02*
G03*
X243603Y392898I0J2984D01*
G01*
Y389822D02*
G03*
X240992Y391360I-2610J-1445D01*
G01*
X244338Y350829D02*
G03*
X238298Y350566I-2877J-3425D01*
G01*
X246788Y353746D02*
G03*
X241237Y353505I-2644J-3148D01*
G01*
X246421Y353894D02*
G03*
X238722Y350990I-639J-9964D01*
G01*
X237898Y356354D02*
G03*
X244516Y355830I3616J3616D01*
G01*
X241055Y353197D02*
G03*
X246753Y352746I3113J3113D01*
G01*
X240992Y353260D02*
G03*
X243603Y354798I0J2984D01*
G01*
Y351722D02*
G03*
X240992Y353260I-2610J-1445D01*
G01*
D02*
G03*
X243603Y354798I0J2984D01*
G01*
Y351722D02*
G03*
X240992Y353260I-2610J-1445D01*
G01*
X238715Y505460D02*
G03*
X244135Y507705I0J7665D01*
G01*
Y503215D02*
G03*
X238715Y505460I-5420J-5420D01*
G01*
X213360Y188964D02*
G03*
X207990Y201930I-18336J0D01*
G01*
X218731D02*
G03*
X213360Y188964I12965J-12965D01*
G01*
X250578Y213360D02*
G03*
X225498Y202211I0J-33785D01*
G01*
X242007Y213360D02*
G03*
X222670Y204764I0J-26049D01*
G01*
X233436Y213360D02*
G03*
X219841Y207317I0J-18313D01*
G01*
X222504Y219253D02*
G03*
X225231Y212670I9309J0D01*
G01*
X214490Y212670D02*
G03*
X222504Y232019I-19349J19349D01*
G01*
X217184Y209976D02*
G03*
X222504Y222821I-12845J12845D01*
G01*
X188524Y207300D02*
G03*
X201490Y212670I0J18336D01*
G01*
Y201930D02*
G03*
X188524Y207300I-12965J-12965D01*
G01*
X213360Y159565D02*
G03*
X215195Y155135I6265J0D01*
G01*
X211525D02*
G03*
X213360Y159565I-4430J4430D01*
G01*
X399431Y15240D02*
G03*
X411543Y20257I0J17129D01*
G01*
Y10223D02*
G03*
X399431Y15240I-12112J-12112D01*
G01*
X433689D02*
G03*
X421577Y10223I0J-17129D01*
G01*
Y20257D02*
G03*
X433689Y15240I12112J12112D01*
G01*
X475431D02*
G03*
X487543Y20257I0J17129D01*
G01*
Y10223D02*
G03*
X475431Y15240I-12112J-12112D01*
G01*
X460896D02*
G03*
X447930Y9869I0J-18336D01*
G01*
Y20610D02*
G03*
X460896Y15240I12965J12965D01*
G01*
X424224D02*
G03*
X437189Y20610I0J18336D01*
G01*
Y9869D02*
G03*
X424224Y15240I-12965J-12965D01*
G01*
X448224D02*
G03*
X461189Y20610I0J18336D01*
G01*
Y9869D02*
G03*
X448224Y15240I-12965J-12965D01*
G01*
X484896D02*
G03*
X471930Y9869I0J-18336D01*
G01*
Y20610D02*
G03*
X484896Y15240I12965J12965D01*
G01*
X467560Y31161D02*
G03*
X471930Y20610I14921J0D01*
G01*
X461189Y20610D02*
G03*
X467560Y35991I-15380J15380D01*
G01*
X463884Y17916D02*
G03*
X467560Y26793I-8876J8876D01*
G01*
X198120Y535503D02*
G03*
X196827Y538624I-4414J0D01*
G01*
X203679D02*
G03*
X198120Y525204I13420J-13420D01*
G01*
X200985Y541318D02*
G03*
X198120Y534402I6916J-6916D01*
G01*
X797560Y540213D02*
G03*
X793604Y549764I-13507J0D01*
G01*
X801516D02*
G03*
X797560Y540213I9551J-9551D01*
G01*
X299720Y199853D02*
G03*
X295764Y209404I-13507J0D01*
G01*
X303676D02*
G03*
X299720Y199853I9551J-9551D01*
G01*
X309271Y222911D02*
G03*
X305315Y213360I9551J-9551D01*
G01*
X299720Y218955D02*
G03*
X309271Y222911I0J13507D01*
G01*
X29871Y85751D02*
G03*
X25915Y76200I9551J-9551D01*
G01*
X20320Y81795D02*
G03*
X29871Y85751I0J13507D01*
G01*
X378800Y293549D02*
G03*
X377672Y296272I-3851J0D01*
G01*
X379928D02*
G03*
X378800Y293549I2723J-2723D01*
G01*
X596800Y289492D02*
G03*
X598988Y284209I7472J0D01*
G01*
X594611D02*
G03*
X596800Y289492I-5283J5283D01*
G01*
X874776Y371856D02*
G03*
X870919Y361301I9427J-9427D01*
G01*
X864221Y367999D02*
G03*
X874776Y371856I1128J13284D01*
G01*
X851061Y348141D02*
G03*
X856255Y360680I-12539J12539D01*
G01*
X863600Y353335D02*
G03*
X851061Y348141I0J-17732D01*
G01*
Y373219D02*
G03*
X863600Y368025I12539J12539D01*
G01*
X856255Y360680D02*
G03*
X851061Y373219I-17732J0D01*
G01*
X12192Y221488D02*
G03*
X23701Y218691I8051J8051D01*
G01*
X16616Y217064D02*
G03*
X24858Y215061I5765J5765D01*
G01*
X29412Y217260D02*
G03*
X57276Y205486I27864J27084D01*
G01*
X26680Y214604D02*
G03*
X48259Y205486I21579J20975D01*
G01*
X23948Y211949D02*
G03*
X39242Y205486I15294J14866D01*
G01*
X21216Y209293D02*
G03*
X30225Y205486I9010J8757D01*
G01*
X776224Y334455D02*
G03*
X773081Y342043I-10731J0D01*
G01*
X779367D02*
G03*
X776224Y334455I7588J-7588D01*
G01*
X208200Y110570D02*
G03*
X200680Y113665I-7472J-7472D01*
G01*
X205105Y118090D02*
G03*
X208200Y110570I10567J-48D01*
G01*
X626111Y121920D02*
G03*
X638777Y128352I0J15687D01*
G01*
X633613Y121920D02*
G03*
X641853Y126105I0J10205D01*
G01*
X774700Y164529D02*
G03*
X771557Y172117I-10731J0D01*
G01*
X777843D02*
G03*
X774700Y164529I7588J-7588D01*
G01*
X625919Y146176D02*
G03*
X618331Y143033I0J-10731D01*
G01*
Y149319D02*
G03*
X625919Y146176I7588J7588D01*
G01*
X186690Y258381D02*
G03*
X189833Y250793I10731J0D01*
G01*
X183547D02*
G03*
X186690Y258381I-7588J7588D01*
G01*
X552259Y311912D02*
G03*
X544671Y308769I0J-10731D01*
G01*
Y315055D02*
G03*
X552259Y311912I7588J7588D01*
G01*
X576717Y121920D02*
G03*
X593503Y128873I0J23739D01*
G01*
X585915Y121920D02*
G03*
X596197Y126179I0J14541D01*
G01*
X642366Y121920D02*
X646176D01*
X626110D02*
X642366D01*
X731774Y86868D02*
X756920Y112014D01*
X198120Y518160D02*
Y556667D01*
X134620Y548767D02*
X144653Y558800D01*
X134620Y518160D02*
Y548767D01*
X9906Y350266D02*
X12700Y353060D01*
X9906Y355854D02*
X12700Y353060D01*
X47852D02*
X60452Y340460D01*
X9652Y353060D02*
X47852D01*
X642366Y125730D02*
X646176Y121920D01*
X613536D02*
X626110D01*
X240992Y353260D02*
X248920D01*
X222504Y207300D02*
Y337512D01*
X60452Y340460D02*
X71120D01*
X170234Y404060D02*
X231394D01*
X605536Y113920D02*
X613536Y121920D01*
X554600Y113920D02*
X605536D01*
X592836Y121920D02*
X596646Y125730D01*
X554600Y121920D02*
X592836D01*
X828040Y75040D02*
Y90678D01*
X289480Y18650D02*
Y27940D01*
X467560Y41990D02*
Y62684D01*
X526796Y121920D01*
X554600D01*
X160020Y510032D02*
Y518160D01*
Y510032D02*
X165100Y502920D01*
X180340D01*
X185420Y508000D01*
Y518160D01*
X30480Y86360D02*
X118500D01*
X20320Y76200D02*
X30480Y86360D01*
X124160Y207300D02*
X213360D01*
X118100Y213360D02*
X124160Y207300D01*
X596800Y279400D02*
Y289560D01*
X574448Y311912D02*
X596800Y289560D01*
X541528Y311912D02*
X574448D01*
X186690Y247650D02*
Y404060D01*
X231394D02*
X248920D01*
X71120Y429460D02*
X144834D01*
X170234Y404060D01*
X213360Y207300D02*
X222504D01*
Y337512D02*
X238252Y353260D01*
X756920Y112014D02*
X774700Y129794D01*
Y175260D01*
X646176Y121920D02*
X664600D01*
X71120Y264260D02*
X80264D01*
Y251196D02*
Y264260D01*
Y251196D02*
X118100Y213360D01*
X370840Y24140D02*
X387740Y41040D01*
X83820Y518160D02*
X121920D01*
X71120Y505460D02*
X83820Y518160D01*
X200660Y505460D02*
X248920D01*
X198120Y508000D02*
X200660Y505460D01*
X198120Y508000D02*
Y518160D01*
X379740Y15240D02*
X416560D01*
X370840Y24140D02*
X379740Y15240D01*
X55880Y441960D02*
X71120D01*
X45720Y431800D02*
X55880Y441960D01*
X45720Y419100D02*
Y431800D01*
X30480Y403860D02*
X45720Y419100D01*
X15240Y403860D02*
X30480D01*
X60452Y340460D02*
X71120D01*
X240992Y353260D02*
X248920D01*
X841620Y469900D02*
Y490220D01*
X466560Y15240D02*
X492560D01*
X416560D02*
X442560D01*
X466560D01*
X387740Y111760D02*
Y132080D01*
Y91440D02*
Y111760D01*
X185420Y518160D02*
X198120D01*
X121920D02*
X134620D01*
X213360Y148300D02*
Y207300D01*
X118500Y45720D02*
Y66040D01*
Y86360D01*
X118100Y137306D02*
Y187960D01*
Y137306D02*
X118500Y136906D01*
Y86360D02*
Y136906D01*
X118100Y187960D02*
Y213360D01*
X378800Y252282D02*
Y297400D01*
X344696Y24140D02*
X370840D01*
X289480Y27940D02*
X297862Y36322D01*
X332514D01*
X344696Y24140D01*
X387740Y41040D02*
Y91440D01*
X467560Y15240D02*
Y41990D01*
X20320Y213360D02*
X28194Y205486D01*
X109283Y182435D02*
Y193486D01*
X108776Y193993D02*
X109283Y193486D01*
X108776Y193993D02*
Y204036D01*
X118100Y213360D01*
X89789Y172974D02*
X99823D01*
X109283Y182435D01*
X28194Y205486D02*
X57277D01*
X89789Y172974D01*
X134620Y510794D02*
Y518160D01*
Y510794D02*
X143764Y501650D01*
X151638D01*
X160020Y510032D01*
X71120Y441960D02*
X79248D01*
X93980Y456692D01*
Y490728D01*
X79248Y505460D02*
X93980Y490728D01*
X71120Y505460D02*
X79248D01*
X9652Y224028D02*
X20320Y213360D01*
X9652Y224028D02*
Y345440D01*
Y398272D01*
X15240Y403860D01*
X235458Y347726D02*
X240992Y353260D01*
X243711Y264260D02*
X248920D01*
X235458Y272514D02*
X243711Y264260D01*
X235458Y272514D02*
Y347726D01*
X235204Y385572D02*
X240992Y391360D01*
X248920D01*
X235204Y359048D02*
X240992Y353260D01*
X235204Y359048D02*
Y385572D01*
X299720Y213360D02*
X310903Y224543D01*
Y248793D01*
X307220Y252476D02*
X310903Y248793D01*
X254000Y252476D02*
X307220D01*
X248920Y257556D02*
X254000Y252476D01*
X248920Y257556D02*
Y264260D01*
X615188Y146176D02*
X636906D01*
X653162Y129920D01*
X664600D01*
X773300Y67130D02*
X779830Y73660D01*
X826660D01*
X828040Y68326D02*
Y75040D01*
X756920Y91440D02*
Y111506D01*
X625255Y121920D02*
X626110D01*
X602996Y144179D02*
X625255Y121920D01*
X602996Y144179D02*
Y153670D01*
X609346Y160020D01*
X620396D01*
X625600Y165224D01*
Y176920D01*
X208200Y99930D02*
Y110570D01*
X200660Y118110D02*
X208200Y110570D01*
X824992Y93726D02*
X828040Y90678D01*
X833635Y173743D02*
X842772Y182880D01*
X833568Y173743D02*
X833635D01*
X842257Y213808D02*
X842772Y213293D01*
Y182880D02*
Y213293D01*
X842257Y339337D02*
X863600Y360680D01*
X842257Y213808D02*
Y339337D01*
X824992Y165167D02*
X833568Y173743D01*
X824992Y93726D02*
Y165167D01*
X757682Y55880D02*
X762000D01*
X754888Y89408D02*
X756920Y91440D01*
X754888Y58674D02*
X757682Y55880D01*
X754888Y58674D02*
Y89408D01*
X813968Y49530D02*
X818540Y54102D01*
Y57040D01*
X731774Y55880D02*
Y86250D01*
Y55880D02*
X745236Y42418D01*
X767588D01*
X774700Y49530D01*
X813968D01*
X762000Y67130D02*
X773300D01*
X219420Y213360D02*
X250580D01*
X841620Y469900D02*
X854456D01*
X874776Y449580D01*
X863600Y360680D02*
X874776Y371856D01*
Y449580D01*
X832612Y391668D02*
X863600Y360680D01*
X832612Y391668D02*
Y405384D01*
X841620Y414392D01*
Y421640D01*
X797560Y513080D02*
Y553720D01*
Y513080D02*
X809498Y501142D01*
X839470D01*
X841620Y498992D01*
Y490220D02*
Y498992D01*
X378800Y252282D02*
X386207Y244875D01*
Y200063D02*
X386480Y199790D01*
X386207Y200063D02*
Y244875D01*
X788670Y184658D02*
Y311658D01*
Y184658D02*
X800608Y172720D01*
Y155194D02*
Y172720D01*
X757428Y112014D02*
X800608Y155194D01*
X756920Y112014D02*
X757428D01*
X776224Y324104D02*
X788670Y311658D01*
X776224Y324104D02*
Y345186D01*
X20320Y47752D02*
Y50800D01*
X236360Y148300D02*
X240460Y152400D01*
X299720Y175260D02*
Y213360D01*
Y175260D02*
X350520Y124460D01*
X370043D01*
X377663Y132080D01*
X387740D01*
X186690Y400304D02*
X190219Y403833D01*
X183134Y404060D02*
X185928Y401266D01*
D11*
X274801Y220581D02*
G03*
X271810Y213360I7221J-7221D01*
G01*
X268080Y217090D02*
G03*
X273594Y219374I0J7798D01*
G01*
X576120Y183670D02*
G03*
X573836Y189184I-7797J0D01*
G01*
X585600Y187243D02*
G03*
X586647Y184717I3573J0D01*
G01*
X584553D02*
G03*
X585600Y187243I-2526J2526D01*
G01*
X593600Y166597D02*
G03*
X592553Y169124I-3573J0D01*
G01*
X594646D02*
G03*
X593600Y166597I2526J-2526D01*
G01*
X600120Y183670D02*
G03*
X596310Y192868I-13007J0D01*
G01*
X602660Y183670D02*
G03*
X600646Y188532I-6875J0D01*
G01*
X601600Y187243D02*
G03*
X602646Y184717I3573J0D01*
G01*
X600554D02*
G03*
X601600Y187243I-2526J2526D01*
G01*
X609600D02*
G03*
X610647Y184717I3573J0D01*
G01*
X608554D02*
G03*
X609600Y187243I-2526J2526D01*
G01*
X617600D02*
G03*
X618647Y184717I3573J0D01*
G01*
X616553D02*
G03*
X617600Y187243I-2526J2526D01*
G01*
X633600D02*
G03*
X634646Y184717I3573J0D01*
G01*
X632553D02*
G03*
X633600Y187243I-2526J2526D01*
G01*
X641600D02*
G03*
X642646Y184717I3573J0D01*
G01*
X640553D02*
G03*
X641600Y187243I-2526J2526D01*
G01*
X674923Y153920D02*
G03*
X672397Y152873I0J-3573D01*
G01*
Y154966D02*
G03*
X674923Y153920I2526J2526D01*
G01*
Y145920D02*
G03*
X672397Y144873I0J-3573D01*
G01*
Y146966D02*
G03*
X674923Y145920I2526J2526D01*
G01*
Y137920D02*
G03*
X672397Y136874I0J-3573D01*
G01*
Y138967D02*
G03*
X674923Y137920I2526J2526D01*
G01*
X654277Y113920D02*
G03*
X656804Y114966I0J3573D01*
G01*
Y112873D02*
G03*
X654277Y113920I-2526J-2526D01*
G01*
X674923Y105920D02*
G03*
X672397Y104874I0J-3573D01*
G01*
Y106966D02*
G03*
X674923Y105920I2526J2526D01*
G01*
X672397Y98967D02*
G03*
X676463Y97282I4067J4067D01*
G01*
X674255Y87237D02*
G03*
X671350Y88440I-2905J-2905D01*
G01*
X672830Y89920D02*
G03*
X673720Y87772I3038J0D01*
G01*
X672397Y80874D02*
G03*
X669036Y72760I8113J-8113D01*
G01*
X670601Y82670D02*
G03*
X669036Y78892I3777J-3777D01*
G01*
X650646Y74716D02*
G03*
X659329Y71120I8682J8682D01*
G01*
X648850Y72920D02*
G03*
X653197Y71120I4346J4346D01*
G01*
X641600Y77243D02*
G03*
X642646Y74716I3573J0D01*
G01*
X640553D02*
G03*
X641600Y77243I-2526J2526D01*
G01*
X633600D02*
G03*
X634646Y74716I3573J0D01*
G01*
X632553D02*
G03*
X633600Y77243I-2526J2526D01*
G01*
X625600D02*
G03*
X626646Y74716I3573J0D01*
G01*
X624553D02*
G03*
X625600Y77243I-2526J2526D01*
G01*
X617600Y57278D02*
G03*
X616734Y58969I-2085J0D01*
G01*
X618466D02*
G03*
X617600Y57278I1220J-1691D01*
G01*
X619080Y60170D02*
G03*
X622171Y52707I10554J0D01*
G01*
X616540Y60170D02*
G03*
X617835Y57043I4422J0D01*
G01*
X617600Y57278D02*
G03*
X616734Y58969I-2085J0D01*
G01*
X618466D02*
G03*
X617600Y57278I1220J-1691D01*
G01*
X609600Y56597D02*
G03*
X608554Y59123I-3573J0D01*
G01*
X610647D02*
G03*
X609600Y56597I2526J-2526D01*
G01*
X601600D02*
G03*
X600554Y59123I-3573J0D01*
G01*
X602646D02*
G03*
X601600Y56597I2526J-2526D01*
G01*
X593600D02*
G03*
X592553Y59123I-3573J0D01*
G01*
X594646D02*
G03*
X593600Y56597I2526J-2526D01*
G01*
X585600D02*
G03*
X584553Y59123I-3573J0D01*
G01*
X586647D02*
G03*
X585600Y56597I2526J-2526D01*
G01*
X548896Y80874D02*
G03*
X547370Y77189I3685J-3685D01*
G01*
X544277Y89920D02*
G03*
X546803Y90967I0J3573D01*
G01*
Y88874D02*
G03*
X544277Y89920I-2526J-2526D01*
G01*
Y97920D02*
G03*
X546803Y98967I0J3573D01*
G01*
Y96874D02*
G03*
X544277Y97920I-2526J-2526D01*
G01*
Y105920D02*
G03*
X546803Y106966I0J3573D01*
G01*
Y104874D02*
G03*
X544277Y105920I-2526J-2526D01*
G01*
Y129920D02*
G03*
X546803Y130967I0J3573D01*
G01*
Y128874D02*
G03*
X544277Y129920I-2526J-2526D01*
G01*
X547095Y136647D02*
G03*
X542177Y136029I-2061J-3474D01*
G01*
X548391Y138832D02*
G03*
X544490Y138341I-1635J-2756D01*
G01*
X547879Y138980D02*
G03*
X543306Y137158I-169J-6225D01*
G01*
X544277Y137920D02*
G03*
X546803Y138967I0J3573D01*
G01*
Y136874D02*
G03*
X544277Y137920I-2526J-2526D01*
G01*
Y145920D02*
G03*
X546803Y146966I0J3573D01*
G01*
Y144873D02*
G03*
X544277Y145920I-2526J-2526D01*
G01*
Y153920D02*
G03*
X546803Y154966I0J3573D01*
G01*
Y152873D02*
G03*
X544277Y153920I-2526J-2526D01*
G01*
Y161920D02*
G03*
X546803Y162966I0J3573D01*
G01*
Y160873D02*
G03*
X544277Y161920I-2526J-2526D01*
G01*
X837540Y66216D02*
G03*
X838763Y63263I4177J0D01*
G01*
X836317D02*
G03*
X837540Y66216I-2953J2953D01*
G01*
X773087Y55340D02*
G03*
X769350Y54563I-1276J-3238D01*
G01*
X773300Y55000D02*
G03*
X767302Y52516I0J-8482D01*
G01*
X816793Y389311D02*
G03*
X819630Y396160I-6849J6849D01*
G01*
X823360Y392430D02*
G03*
X817474Y389992I0J-8324D01*
G01*
X843360Y407924D02*
G03*
X845828Y402457I7289J0D01*
G01*
X840893D02*
G03*
X843360Y407924I-4822J5466D01*
G01*
X848360Y443738D02*
G03*
X846389Y442354I0J-2096D01*
G01*
X846308Y445090D02*
G03*
X848360Y443738I2052J880D01*
G01*
X858803Y433295D02*
G03*
X842880Y439890I-15923J-15923D01*
G01*
X854467Y437631D02*
G03*
X842880Y442430I-11587J-11587D01*
G01*
X850131Y441967D02*
G03*
X842880Y444970I-7251J-7251D01*
G01*
X851159Y440939D02*
G03*
X845497Y440962I-2842J-2842D01*
G01*
X849348Y442750D02*
G03*
X843715Y442772I-2828J-2828D01*
G01*
X813875Y445370D02*
G03*
X820243Y448008I0J9005D01*
G01*
Y442733D02*
G03*
X813875Y445370I-6367J-6367D01*
G01*
X406480Y206836D02*
G03*
X407737Y205052I1894J0D01*
G01*
X405224D02*
G03*
X406480Y206836I-638J1784D01*
G01*
X402750Y201540D02*
G03*
X396368Y216948I-21791J0D01*
G01*
X405290Y201540D02*
G03*
X400704Y212612I-15658J0D01*
G01*
X407830Y201540D02*
G03*
X405040Y208276I-9526J0D01*
G01*
X842880Y527245D02*
G03*
X845518Y520878I9005J0D01*
G01*
X840243D02*
G03*
X842880Y527245I-6367J6367D01*
G01*
X828040Y514858D02*
G03*
X826455Y513676I0J-1653D01*
G01*
X826385Y516017D02*
G03*
X828040Y514858I1655J603D01*
G01*
X833921Y508977D02*
G03*
X822880Y513550I-11041J-11041D01*
G01*
X829585Y513313D02*
G03*
X822880Y516090I-6705J-6705D01*
G01*
X309480Y8637D02*
G03*
X307013Y14103I-7289J0D01*
G01*
X311948D02*
G03*
X309480Y8637I4822J-5466D01*
G01*
X325881Y24130D02*
G03*
X312292Y17949I0J-18029D01*
G01*
X320297Y24130D02*
G03*
X310377Y19618I0J-13160D01*
G01*
X314712Y24130D02*
G03*
X308463Y21287I0J-8292D01*
G01*
X208200Y11256D02*
G03*
X206738Y13469I-2405J0D01*
G01*
X209663D02*
G03*
X208200Y11256I943J-2213D01*
G01*
D02*
G03*
X206738Y13469I-2405J0D01*
G01*
X209663D02*
G03*
X208200Y11256I943J-2213D01*
G01*
X213330Y49180D02*
G03*
X211930Y45800I3380J-3380D01*
G01*
X208200Y49530D02*
G03*
X217555Y53405I0J13230D01*
G01*
X208200Y46990D02*
G03*
X213219Y49069I0J7098D01*
G01*
X90435Y195315D02*
G03*
X101600Y190690I11164J11164D01*
G01*
X94772Y190978D02*
G03*
X101600Y188150I6828J6828D01*
G01*
X96940Y218020D02*
G03*
X101600Y216090I4660J4660D01*
G01*
X98870Y213360D02*
G03*
X96940Y218020I-6591J0D01*
G01*
X368910Y38710D02*
G03*
X358552Y43000I-10358J-10358D01*
G01*
X370706Y40506D02*
G03*
X364684Y43000I-6022J-6022D01*
G01*
X202090Y80589D02*
G03*
X204409Y74989I7919J0D01*
G01*
X199771D02*
G03*
X202090Y80589I-5599J5599D01*
G01*
X194171Y71120D02*
G03*
X199771Y73439I0J7919D01*
G01*
Y68801D02*
G03*
X194171Y71120I-5599J-5599D01*
G01*
X815115Y469900D02*
G03*
X821483Y472537I0J9005D01*
G01*
Y467262D02*
G03*
X815115Y469900I-6367J-6367D01*
G01*
X387740Y178816D02*
G03*
X389438Y176041I3116J0D01*
G01*
X386042D02*
G03*
X387740Y178816I-1418J2774D01*
G01*
X386050Y172720D02*
G03*
X380545Y186012I-18797J0D01*
G01*
X388590Y172720D02*
G03*
X384881Y181675I-12665J0D01*
G01*
X404740Y167640D02*
G03*
X403623Y169161I-1594J0D01*
G01*
X405857D02*
G03*
X404740Y167640I477J-1521D01*
G01*
Y146930D02*
G03*
X403378Y148928I-2146J0D01*
G01*
X406102D02*
G03*
X404740Y146930I784J-1998D01*
G01*
X376754Y157154D02*
G03*
X385565Y155733I5389J5389D01*
G01*
X379241Y154667D02*
G03*
X386706Y153463I4566J4566D01*
G01*
X381728Y152180D02*
G03*
X387846Y151194I3742J3742D01*
G01*
X381508Y152400D02*
G03*
X383830Y153911I0J2539D01*
G01*
Y150889D02*
G03*
X381508Y152400I-2322J-1028D01*
G01*
X815115Y490220D02*
G03*
X821483Y492858I0J9005D01*
G01*
Y487583D02*
G03*
X815115Y490220I-6367J-6367D01*
G01*
X404740Y137160D02*
G03*
X405857Y135639I1594J0D01*
G01*
X403623D02*
G03*
X404740Y137160I-477J1521D01*
G01*
X415553Y147973D02*
G03*
X408970Y132080I15893J-15893D01*
G01*
X411217Y143637D02*
G03*
X406430Y132080I11557J-11557D01*
G01*
X406881Y139301D02*
G03*
X403890Y132080I7221J-7221D01*
G01*
X405152Y115489D02*
G03*
X409448Y119888I-104J4399D01*
G01*
X405212Y112950D02*
G03*
X409448Y117287I-102J4338D01*
G01*
X405272Y110410D02*
G03*
X409448Y114686I-101J4276D01*
G01*
X414245Y91440D02*
G03*
X407877Y88802I0J-9005D01*
G01*
Y94078D02*
G03*
X414245Y91440I6367J6367D01*
G01*
X815115Y421640D02*
G03*
X821483Y424277I0J9005D01*
G01*
Y419002D02*
G03*
X815115Y421640I-6367J-6367D01*
G01*
X145005Y71120D02*
G03*
X138637Y68482I0J-9005D01*
G01*
Y73758D02*
G03*
X145005Y71120I6367J6367D01*
G01*
X172720Y529898D02*
G03*
X175414Y523394I9198J0D01*
G01*
X170026D02*
G03*
X172720Y529898I-6504J6504D01*
G01*
X60452Y480060D02*
G03*
X65651Y482497I0J6764D01*
G01*
Y477623D02*
G03*
X60452Y480060I-5199J-4327D01*
G01*
X59382Y467360D02*
G03*
X65886Y470054I0J9198D01*
G01*
Y464666D02*
G03*
X59382Y467360I-6504J-6504D01*
G01*
Y454660D02*
G03*
X65886Y457354I0J9198D01*
G01*
Y451966D02*
G03*
X59382Y454660I-6504J-6504D01*
G01*
X82858Y353260D02*
G03*
X76354Y350566I0J-9198D01*
G01*
Y355954D02*
G03*
X82858Y353260I6504J6504D01*
G01*
X59382Y365960D02*
G03*
X65886Y368654I0J9198D01*
G01*
Y363266D02*
G03*
X59382Y365960I-6504J-6504D01*
G01*
Y378660D02*
G03*
X65886Y381354I0J9198D01*
G01*
Y375966D02*
G03*
X59382Y378660I-6504J-6504D01*
G01*
Y391360D02*
G03*
X65886Y394054I0J9198D01*
G01*
Y388666D02*
G03*
X59382Y391360I-6504J-6504D01*
G01*
X82858Y404060D02*
G03*
X76354Y401366I0J-9198D01*
G01*
Y406754D02*
G03*
X82858Y404060I6504J6504D01*
G01*
Y416760D02*
G03*
X76354Y414066I0J-9198D01*
G01*
Y419454D02*
G03*
X82858Y416760I6504J6504D01*
G01*
X59382Y315060D02*
G03*
X65886Y317754I0J9198D01*
G01*
Y312366D02*
G03*
X59382Y315060I-6504J-6504D01*
G01*
X59140Y302260D02*
G03*
X65886Y305054I0J9540D01*
G01*
Y299666D02*
G03*
X59623Y302260I-6263J-6263D01*
G01*
X59382Y289660D02*
G03*
X65886Y292354I0J9198D01*
G01*
Y286966D02*
G03*
X59382Y289660I-6504J-6504D01*
G01*
Y276960D02*
G03*
X65886Y279654I0J9198D01*
G01*
Y274266D02*
G03*
X59382Y276960I-6504J-6504D01*
G01*
X257656Y340460D02*
G03*
X254860Y338741I0J-3133D01*
G01*
Y342179D02*
G03*
X257656Y340460I2796J1414D01*
G01*
X251460Y344270D02*
G03*
X268541Y351345I0J24157D01*
G01*
X251460Y341730D02*
G03*
X264205Y347009I0J18025D01*
G01*
X251460Y339190D02*
G03*
X259869Y342673I0J11893D01*
G01*
X260658Y276960D02*
G03*
X254154Y274266I0J-9198D01*
G01*
Y279654D02*
G03*
X260658Y276960I6504J6504D01*
G01*
Y289660D02*
G03*
X254154Y286966I0J-9198D01*
G01*
Y292354D02*
G03*
X260658Y289660I6504J6504D01*
G01*
Y302360D02*
G03*
X254154Y299666I0J-9198D01*
G01*
Y305054D02*
G03*
X260658Y302360I6504J6504D01*
G01*
Y315060D02*
G03*
X254154Y312366I0J-9198D01*
G01*
Y317754D02*
G03*
X260658Y315060I6504J6504D01*
G01*
Y327760D02*
G03*
X254154Y325066I0J-9198D01*
G01*
Y330454D02*
G03*
X260658Y327760I6504J6504D01*
G01*
D02*
G03*
X254154Y325066I0J-9198D01*
G01*
Y330454D02*
G03*
X260658Y327760I6504J6504D01*
G01*
X253212Y420143D02*
G03*
X259588Y421132I2512J4852D01*
G01*
X252044Y417888D02*
G03*
X257133Y418677I2005J3872D01*
G01*
X260658Y378660D02*
G03*
X254154Y375966I0J-9198D01*
G01*
Y381354D02*
G03*
X260658Y378660I6504J6504D01*
G01*
Y365960D02*
G03*
X254154Y363266I0J-9198D01*
G01*
Y368654D02*
G03*
X260658Y365960I6504J6504D01*
G01*
X237798Y429460D02*
G03*
X243554Y432015I0J7760D01*
G01*
Y426905D02*
G03*
X237798Y429460I-5756J-5205D01*
G01*
X190360Y135502D02*
G03*
X188076Y141016I-7798J0D01*
G01*
X192644D02*
G03*
X190360Y135502I5514J-5514D01*
G01*
X172720Y530828D02*
G03*
X169311Y539058I-11639J0D01*
G01*
X176495D02*
G03*
X172720Y529944I9114J-9114D01*
G01*
X174699Y540854D02*
G03*
X172720Y536076I4778J-4778D01*
G01*
X736125Y543085D02*
G03*
X740530Y553720I-10635J10635D01*
G01*
X740461Y547421D02*
G03*
X743070Y553720I-6299J6299D01*
G01*
X746760Y547490D02*
G03*
X736125Y543085I0J-15041D01*
G01*
X746760Y550030D02*
G03*
X740461Y547421I0J-8908D01*
G01*
X761525Y564355D02*
G03*
X772160Y559950I10635J10635D01*
G01*
X765861Y560019D02*
G03*
X772160Y557410I6299J6299D01*
G01*
X765930Y553720D02*
G03*
X761525Y564355I-15041J0D01*
G01*
X768470Y553720D02*
G03*
X765861Y560019I-8908J0D01*
G01*
X833595Y543085D02*
G03*
X822960Y547490I-10635J-10635D01*
G01*
X829259Y547421D02*
G03*
X822960Y550030I-6299J-6299D01*
G01*
X829190Y553720D02*
G03*
X833595Y543085I15041J0D01*
G01*
X826650Y553720D02*
G03*
X829259Y547421I8908J0D01*
G01*
X851154Y531934D02*
G03*
X843955Y549315I-24580J0D01*
G01*
X851154Y538066D02*
G03*
X845751Y551111I-18448J0D01*
G01*
X851154Y544198D02*
G03*
X847547Y552907I-12316J0D01*
G01*
X852765Y549315D02*
G03*
X851154Y545425I3890J-3890D01*
G01*
X858995Y543085D02*
G03*
X848360Y547490I-10635J-10635D01*
G01*
X854659Y547421D02*
G03*
X848360Y550030I-6299J-6299D01*
G01*
X854590Y553720D02*
G03*
X858995Y543085I15041J0D01*
G01*
X852050Y553720D02*
G03*
X854659Y547421I8908J0D01*
G01*
X826262Y207692D02*
G03*
X823635Y214035I-8970J0D01*
G01*
X832445D02*
G03*
X826262Y199107I14928J-14928D01*
G01*
X830649Y215831D02*
G03*
X826262Y205239I10592J-10592D01*
G01*
X853440Y203400D02*
G03*
X849035Y214035I-15041J0D01*
G01*
X853440Y209532D02*
G03*
X850831Y215831I-8908J0D01*
G01*
X857845Y214035D02*
G03*
X853440Y203400I10635J-10635D01*
G01*
X856049Y215831D02*
G03*
X853440Y209532I6299J-6299D01*
G01*
X289085Y456725D02*
G03*
X293490Y467360I-10635J10635D01*
G01*
X293421Y461061D02*
G03*
X296030Y467360I-6299J6299D01*
G01*
X299720Y461130D02*
G03*
X289085Y456725I0J-15041D01*
G01*
X299720Y463670D02*
G03*
X293421Y461061I0J-8908D01*
G01*
X289085Y431325D02*
G03*
X293490Y441960I-10635J10635D01*
G01*
X293421Y435661D02*
G03*
X296030Y441960I-6299J6299D01*
G01*
X299720Y435730D02*
G03*
X289085Y431325I0J-15041D01*
G01*
X299720Y438270D02*
G03*
X293421Y435661I0J-8908D01*
G01*
X289085Y405925D02*
G03*
X293490Y416560I-10635J10635D01*
G01*
X293421Y410261D02*
G03*
X296030Y416560I-6299J6299D01*
G01*
X299720Y410330D02*
G03*
X289085Y405925I0J-15041D01*
G01*
X299720Y412870D02*
G03*
X293421Y410261I0J-8908D01*
G01*
X299720Y382524D02*
G03*
X297755Y385248I-2870J0D01*
G01*
X301685D02*
G03*
X299720Y382524I905J-2724D01*
G01*
X310355Y380525D02*
G03*
X299720Y384930I-10635J-10635D01*
G01*
X306019Y384861D02*
G03*
X299720Y387470I-6299J-6299D01*
G01*
X305950Y391160D02*
G03*
X310355Y380525I15041J0D01*
G01*
X303410Y391160D02*
G03*
X306019Y384861I8908J0D01*
G01*
X310355Y355125D02*
G03*
X299720Y359530I-10635J-10635D01*
G01*
X306019Y359461D02*
G03*
X299720Y362070I-6299J-6299D01*
G01*
X305950Y365760D02*
G03*
X310355Y355125I15041J0D01*
G01*
X303410Y365760D02*
G03*
X306019Y359461I8908J0D01*
G01*
X289085Y355125D02*
G03*
X293490Y365760I-10635J10635D01*
G01*
X293421Y359461D02*
G03*
X296030Y365760I-6299J6299D01*
G01*
X299720Y359530D02*
G03*
X289085Y355125I0J-15041D01*
G01*
X299720Y362070D02*
G03*
X293421Y359461I0J-8908D01*
G01*
X289085Y329725D02*
G03*
X293490Y340360I-10635J10635D01*
G01*
X293421Y334061D02*
G03*
X296030Y340360I-6299J6299D01*
G01*
X299720Y334130D02*
G03*
X289085Y329725I0J-15041D01*
G01*
X299720Y336670D02*
G03*
X293421Y334061I0J-8908D01*
G01*
X289085Y304325D02*
G03*
X293490Y314960I-10635J10635D01*
G01*
X293421Y308661D02*
G03*
X296030Y314960I-6299J6299D01*
G01*
X299720Y308730D02*
G03*
X289085Y304325I0J-15041D01*
G01*
X299720Y311270D02*
G03*
X293421Y308661I0J-8908D01*
G01*
X284680Y289560D02*
G03*
X295315Y293965I0J15041D01*
G01*
X290812Y289560D02*
G03*
X297111Y292169I0J8908D01*
G01*
X295315Y285155D02*
G03*
X284680Y289560I-10635J-10635D01*
G01*
X297111Y286951D02*
G03*
X290812Y289560I-6299J-6299D01*
G01*
X289085Y274795D02*
G03*
X299720Y270390I10635J10635D01*
G01*
X293421Y270459D02*
G03*
X299720Y267850I6299J6299D01*
G01*
X293490Y264160D02*
G03*
X289085Y274795I-15041J0D01*
G01*
X296030Y264160D02*
G03*
X293421Y270459I-8908J0D01*
G01*
X299720Y232530D02*
G03*
X277579Y223359I0J-31313D01*
G01*
X299720Y235070D02*
G03*
X281915Y227695I0J-25181D01*
G01*
X299720Y237610D02*
G03*
X286251Y232031I0J-19049D01*
G01*
X299720Y240150D02*
G03*
X290587Y236367I0J-12916D01*
G01*
X9685Y36035D02*
G03*
X20320Y31630I10635J10635D01*
G01*
X14021Y31699D02*
G03*
X20320Y29090I6299J6299D01*
G01*
X14090Y25400D02*
G03*
X9685Y36035I-15041J0D01*
G01*
X16630Y25400D02*
G03*
X14021Y31699I-8908J0D01*
G01*
X566800Y291025D02*
G03*
X569437Y284657I9005J0D01*
G01*
X564162D02*
G03*
X566800Y291025I-6367J6367D01*
G01*
X656800Y268732D02*
G03*
X654389Y273934I-6816J0D01*
G01*
X659211D02*
G03*
X656800Y268732I4406J-5201D01*
G01*
X544256Y288875D02*
G03*
X551800Y285750I7544J7544D01*
G01*
X548070Y282020D02*
G03*
X545920Y287211I-7341J0D01*
G01*
X529255Y288875D02*
G03*
X536800Y285750I7545J7545D01*
G01*
X533070Y282020D02*
G03*
X530920Y287210I-7340J0D01*
G01*
X476800Y288756D02*
G03*
X478779Y285182I4217J0D01*
G01*
X474821D02*
G03*
X476800Y288756I-2237J3574D01*
G01*
X491800Y269240D02*
G03*
X489537Y273815I-5755J0D01*
G01*
X494063D02*
G03*
X491800Y269240I3492J-4575D01*
G01*
X452871Y262851D02*
G03*
X458077Y276558I-12645J12645D01*
G01*
X456866Y266846D02*
G03*
X460612Y276709I-9098J9098D01*
G01*
X460862Y270842D02*
G03*
X463148Y276860I-5552J5552D01*
G01*
X431800Y291025D02*
G03*
X434437Y284657I9005J0D01*
G01*
X429162D02*
G03*
X431800Y291025I-6367J6367D01*
G01*
X462755Y107155D02*
G03*
X458350Y96520I10635J-10635D01*
G01*
X458419Y102819D02*
G03*
X455810Y96520I6299J-6299D01*
G01*
X452120Y102750D02*
G03*
X462755Y107155I0J15041D01*
G01*
X452120Y100210D02*
G03*
X458419Y102819I0J8908D01*
G01*
X467160Y248920D02*
G03*
X456525Y244515I0J-15041D01*
G01*
X461028Y248920D02*
G03*
X454729Y246311I0J-8908D01*
G01*
X456525Y253325D02*
G03*
X467160Y248920I10635J10635D01*
G01*
X454729Y251529D02*
G03*
X461028Y248920I6299J6299D01*
G01*
X665005Y30955D02*
G03*
X675640Y26550I10635J10635D01*
G01*
X669341Y26619D02*
G03*
X675640Y24010I6299J6299D01*
G01*
X669410Y20320D02*
G03*
X665005Y30955I-15041J0D01*
G01*
X671950Y20320D02*
G03*
X669341Y26619I-8908J0D01*
G01*
X639605Y9685D02*
G03*
X644010Y20320I-10635J10635D01*
G01*
X643941Y14021D02*
G03*
X646550Y20320I-6299J6299D01*
G01*
X650240Y14090D02*
G03*
X639605Y9685I0J-15041D01*
G01*
X650240Y16630D02*
G03*
X643941Y14021I0J-8908D01*
G01*
X588805Y30955D02*
G03*
X599440Y26550I10635J10635D01*
G01*
X593141Y26619D02*
G03*
X599440Y24010I6299J6299D01*
G01*
X593210Y20320D02*
G03*
X588805Y30955I-15041J0D01*
G01*
X595750Y20320D02*
G03*
X593141Y26619I-8908J0D01*
G01*
X563405Y30955D02*
G03*
X574040Y26550I10635J10635D01*
G01*
X567741Y26619D02*
G03*
X574040Y24010I6299J6299D01*
G01*
X567810Y20320D02*
G03*
X563405Y30955I-15041J0D01*
G01*
X570350Y20320D02*
G03*
X567741Y26619I-8908J0D01*
G01*
X538005Y30955D02*
G03*
X548640Y26550I10635J10635D01*
G01*
X542341Y26619D02*
G03*
X548640Y24010I6299J6299D01*
G01*
X542410Y20320D02*
G03*
X538005Y30955I-15041J0D01*
G01*
X544950Y20320D02*
G03*
X542341Y26619I-8908J0D01*
G01*
X751365Y151925D02*
G03*
X755770Y162560I-10635J10635D01*
G01*
X755701Y156261D02*
G03*
X758310Y162560I-6299J6299D01*
G01*
X762000Y156330D02*
G03*
X751365Y151925I0J-15041D01*
G01*
X762000Y158870D02*
G03*
X755701Y156261I0J-8908D01*
G01*
X711200Y177600D02*
G03*
X715605Y166965I15041J0D01*
G01*
X711200Y171468D02*
G03*
X713809Y165169I8908J0D01*
G01*
X706795Y166965D02*
G03*
X711200Y177600I-10635J10635D01*
G01*
X708591Y165169D02*
G03*
X711200Y171468I-6299J6299D01*
G01*
X736600Y177600D02*
G03*
X741005Y166965I15041J0D01*
G01*
X736600Y171468D02*
G03*
X739209Y165169I8908J0D01*
G01*
X732195Y166965D02*
G03*
X736600Y177600I-10635J10635D01*
G01*
X733991Y165169D02*
G03*
X736600Y171468I-6299J6299D01*
G01*
X838200Y147520D02*
G03*
X833795Y158155I-15041J0D01*
G01*
X838200Y153652D02*
G03*
X835591Y159951I-8908J0D01*
G01*
X842605Y158155D02*
G03*
X838200Y147520I10635J-10635D01*
G01*
X840809Y159951D02*
G03*
X838200Y153652I6299J-6299D01*
G01*
X25400Y486530D02*
G03*
X6093Y478533I0J-27305D01*
G01*
X25400Y489070D02*
G03*
X10429Y482869I0J-21173D01*
G01*
X25400Y491610D02*
G03*
X14765Y487205I0J-15041D01*
G01*
X31630Y492760D02*
G03*
X39627Y473453I27305J0D01*
G01*
X29090Y492760D02*
G03*
X35291Y477789I21173J0D01*
G01*
X26550Y492760D02*
G03*
X30955Y482125I15041J0D01*
G01*
X30086Y387055D02*
G03*
X30280Y381200I3224J-2824D01*
G01*
X28176Y388729D02*
G03*
X28361Y383119I3089J-2706D01*
G01*
X40441Y365760D02*
G03*
X29805Y361355I0J-15041D01*
G01*
X34308Y365760D02*
G03*
X28009Y363151I0J-8908D01*
G01*
X29805Y370165D02*
G03*
X40441Y365760I10635J10635D01*
G01*
X28009Y368369D02*
G03*
X34308Y365760I6299J6299D01*
G01*
X40441Y314960D02*
G03*
X29805Y310555I0J-15041D01*
G01*
X34308Y314960D02*
G03*
X28009Y312351I0J-8908D01*
G01*
X29805Y319365D02*
G03*
X40441Y314960I10635J10635D01*
G01*
X28009Y317569D02*
G03*
X34308Y314960I6299J6299D01*
G01*
X39627Y258067D02*
G03*
X31630Y238760I19307J-19307D01*
G01*
X35291Y253731D02*
G03*
X29090Y238760I14971J-14971D01*
G01*
X30955Y249395D02*
G03*
X26550Y238760I10635J-10635D01*
G01*
X82368Y228092D02*
G03*
X73696Y224500I0J-12264D01*
G01*
Y231684D02*
G03*
X82368Y228092I8672J8672D01*
G01*
X683641Y348361D02*
G03*
X684067Y355033I-3578J3578D01*
G01*
X685682Y350402D02*
G03*
X686076Y356587I-3316J3316D01*
G01*
X400740Y348742D02*
G03*
X409412Y352334I0J12264D01*
G01*
Y345150D02*
G03*
X400740Y348742I-8672J-8672D01*
G01*
X419862Y315073D02*
G03*
X418556Y318226I-4459J0D01*
G01*
X425481Y317984D02*
G03*
X419862Y305654I10718J-12330D01*
G01*
X423814Y319901D02*
G03*
X419862Y311228I7540J-8673D01*
G01*
X736418Y437388D02*
G03*
X727746Y433796I0J-12264D01*
G01*
Y440980D02*
G03*
X736418Y437388I8672J8672D01*
G01*
X594070Y428970D02*
G03*
X597662Y437642I-8672J8672D01*
G01*
X602742Y432562D02*
G03*
X594070Y428970I0J-12264D01*
G01*
X863854Y400630D02*
G03*
X867446Y391958I12264J0D01*
G01*
X860262D02*
G03*
X863854Y400630I-8672J8672D01*
G01*
X778020Y33546D02*
G03*
X776224Y29210I4336J-4336D01*
G01*
X772231Y34172D02*
G03*
X781304Y36830I2107J9623D01*
G01*
X771687Y31691D02*
G03*
X778020Y33546I1471J6716D01*
G01*
X593416Y229616D02*
G03*
X584744Y226024I0J-12264D01*
G01*
Y233208D02*
G03*
X593416Y229616I8672J8672D01*
G01*
X96048Y189702D02*
G03*
X87376Y193294I-8672J-8672D01*
G01*
X92456Y198374D02*
G03*
X96048Y189702I12264J0D01*
G01*
X91658Y395696D02*
G03*
X71465Y404060I-20193J-20193D01*
G01*
X93454Y397492D02*
G03*
X77597Y404060I-15857J-15857D01*
G01*
X95250Y399288D02*
G03*
X83729Y404060I-11521J-11521D01*
G01*
X97046Y401084D02*
G03*
X89861Y404060I-7185J-7185D01*
G01*
X91658Y346928D02*
G03*
X76371Y353260I-15287J-15287D01*
G01*
X93454Y348724D02*
G03*
X82503Y353260I-10951J-10951D01*
G01*
X95250Y350520D02*
G03*
X88635Y353260I-6615J-6615D01*
G01*
X549389Y145920D02*
G03*
X536738Y140680I0J-17891D01*
G01*
X543257Y145920D02*
G03*
X534942Y142476I0J-11759D01*
G01*
X536738Y147864D02*
G03*
X541432Y145920I4694J4694D01*
G01*
X641600Y76007D02*
G03*
X639536Y80990I-7047J0D01*
G01*
X646720D02*
G03*
X641600Y68629I12361J-12361D01*
G01*
X644924Y82786D02*
G03*
X641600Y74761I8025J-8025D01*
G01*
X552232Y214848D02*
G03*
X543560Y218440I-8672J-8672D01*
G01*
X548640Y223520D02*
G03*
X552232Y214848I12264J0D01*
G01*
X686562Y143888D02*
G03*
X689568Y137953I7361J0D01*
G01*
X683556D02*
G03*
X686562Y143888I-4355J5934D01*
G01*
X430276Y181469D02*
G03*
X428970Y184622I-4459J0D01*
G01*
X436154D02*
G03*
X430276Y170431I14191J-14191D01*
G01*
X434358Y186418D02*
G03*
X430276Y176563I9855J-9855D01*
G01*
X82986Y416760D02*
G03*
X91658Y420352I0J12264D01*
G01*
Y413168D02*
G03*
X82986Y416760I-8672J-8672D01*
G01*
X789940Y346020D02*
G03*
X793532Y337348I12264J0D01*
G01*
X786348D02*
G03*
X789940Y346020I-8672J8672D01*
G01*
X568524Y173736D02*
G03*
X559852Y170144I0J-12264D01*
G01*
Y177328D02*
G03*
X568524Y173736I8672J8672D01*
G01*
X230378Y480496D02*
G03*
X226786Y489168I-12264J0D01*
G01*
X233970D02*
G03*
X230378Y480496I8672J-8672D01*
G01*
X36358Y504154D02*
G03*
X27686Y507746I-8672J-8672D01*
G01*
X32766Y512826D02*
G03*
X36358Y504154I12264J0D01*
G01*
X313618Y24130D02*
G03*
X322290Y27722I0J12264D01*
G01*
Y20538D02*
G03*
X313618Y24130I-8672J-8672D01*
G01*
X644834Y50292D02*
G03*
X653506Y53884I0J12264D01*
G01*
Y46700D02*
G03*
X644834Y50292I-8672J-8672D01*
G01*
X624078Y105409D02*
G03*
X627280Y98686I8660J0D01*
G01*
X620876D02*
G03*
X624078Y105409I-5458J6723D01*
G01*
X852932Y149170D02*
G03*
X856524Y140498I12264J0D01*
G01*
X849340D02*
G03*
X852932Y149170I-8672J8672D01*
G01*
X826262Y194890D02*
G03*
X829854Y186218I12264J0D01*
G01*
X822670D02*
G03*
X826262Y194890I-8672J8672D01*
G01*
X691642Y207192D02*
G03*
X688050Y215864I-12264J0D01*
G01*
X695234D02*
G03*
X691642Y207192I8672J-8672D01*
G01*
X672520Y259588D02*
G03*
X681192Y263180I0J12264D01*
G01*
Y255996D02*
G03*
X672520Y259588I-8672J-8672D01*
G01*
X667730Y236438D02*
G03*
X671322Y245110I-8672J8672D01*
G01*
X676402Y240030D02*
G03*
X667730Y236438I0J-12264D01*
G01*
X538244Y129920D02*
G03*
X517308Y121248I0J-29608D01*
G01*
X532112Y129920D02*
G03*
X515512Y123044I0J-23476D01*
G01*
X525980Y129920D02*
G03*
X513716Y124840I0J-17344D01*
G01*
X519848Y129920D02*
G03*
X511920Y126636I0J-11212D01*
G01*
X584707Y154180D02*
G03*
X577360Y150840I0J-9752D01*
G01*
Y157520D02*
G03*
X584707Y154180I7348J6412D01*
G01*
X514980Y161920D02*
G03*
X512055Y154224I7103J-7103D01*
G01*
X507284Y158995D02*
G03*
X514980Y161920I593J10027D01*
G01*
X334228Y184948D02*
G03*
X342900Y181356I8672J8672D01*
G01*
X337820Y176276D02*
G03*
X334228Y184948I-12264J0D01*
G01*
X547370Y81919D02*
G03*
X550378Y75975I7376J0D01*
G01*
X544362D02*
G03*
X547370Y81919I-4368J5944D01*
G01*
X633600Y98930D02*
G03*
X636533Y106638I-7120J7120D01*
G01*
X641308Y101863D02*
G03*
X633600Y98930I-587J-10053D01*
G01*
X649601Y71120D02*
G03*
X655670Y74038I0J7771D01*
G01*
X655428Y68023D02*
G03*
X649600Y71120I-5828J-3935D01*
G01*
X57784Y391360D02*
G03*
X49112Y387768I0J-12264D01*
G01*
Y394952D02*
G03*
X57784Y391360I8672J8672D01*
G01*
X362458Y188071D02*
G03*
X359718Y193080I-5949J0D01*
G01*
X365198D02*
G03*
X362458Y188071I3209J-5009D01*
G01*
X721360Y91004D02*
G03*
X724952Y82332I12264J0D01*
G01*
X717768D02*
G03*
X721360Y91004I-8672J8672D01*
G01*
X677672Y123952D02*
G03*
X684781Y121817I5538J5538D01*
G01*
X680720Y116840D02*
G03*
X677846Y123778I-9811J0D01*
G01*
X57984Y302260D02*
G03*
X49312Y298668I0J-12264D01*
G01*
Y305852D02*
G03*
X57984Y302260I8672J8672D01*
G01*
X820078Y300422D02*
G03*
X828750Y296830I8672J8672D01*
G01*
X823670Y291750D02*
G03*
X820078Y300422I-12264J0D01*
G01*
X743250Y59136D02*
G03*
X739550Y67843I-12096J0D01*
G01*
X743250Y65113D02*
G03*
X741313Y69672I-6332J0D01*
G01*
X746668Y67908D02*
G03*
X743250Y59656I8252J-8252D01*
G01*
X684401Y105920D02*
G03*
X694908Y110272I0J14859D01*
G01*
X690533Y105920D02*
G03*
X696704Y108476I0J8727D01*
G01*
X694908Y103088D02*
G03*
X688071Y105920I-6837J-6837D01*
G01*
X674201Y87291D02*
G03*
X684357Y85214I6650J6650D01*
G01*
X676921Y84571D02*
G03*
X685303Y82857I5489J5489D01*
G01*
X679640Y81852D02*
G03*
X686250Y80500I4328J4328D01*
G01*
X649600Y71120D02*
X659384D01*
X707898Y102787D02*
Y127000D01*
X712216Y92456D02*
Y131318D01*
X716534Y89154D02*
Y135890D01*
X697740Y105920D02*
X698500Y106680D01*
X700532Y73152D02*
X716534Y89154D01*
X700532Y151892D02*
X716534Y135890D01*
X695960Y76200D02*
X712216Y92456D01*
X695960Y147574D02*
X712216Y131318D01*
X702393Y97282D02*
X707898Y102787D01*
X691642Y143256D02*
X707898Y127000D01*
X680992Y80500D02*
X686250D01*
X671572Y89920D02*
X680992Y80500D01*
X741172Y68467D02*
Y69596D01*
X743076Y71500D01*
X172720Y518160D02*
Y557117D01*
X45720Y302260D02*
X71020D01*
X71120Y302360D01*
X43180Y281940D02*
Y287020D01*
X45820Y289660D01*
X299720Y391160D02*
X325120Y365760D01*
Y217932D02*
Y365760D01*
Y217932D02*
X369570Y173482D01*
Y168402D02*
Y173482D01*
X364490Y163322D02*
X369570Y168402D01*
X685800Y116813D02*
Y116840D01*
X685769Y116782D02*
X685800Y116813D01*
X684842Y116782D02*
X685769D01*
X677164Y124460D02*
X684842Y116782D01*
X664600Y105920D02*
X697740D01*
X665238Y97282D02*
X702393D01*
X721360Y78740D02*
Y121920D01*
X695960Y56134D02*
Y76200D01*
X700532Y45720D02*
Y73152D01*
X721360Y121920D02*
X762000Y162560D01*
X677164Y124460D02*
Y137920D01*
X664600D02*
X677164D01*
X664600Y97920D02*
X665238Y97282D01*
X664600Y89920D02*
X671572D01*
X679704Y39878D02*
X695960Y56134D01*
X624586Y39878D02*
X679704D01*
X613633Y35560D02*
X690372D01*
X664972Y30988D02*
X675640Y20320D01*
X612027Y30988D02*
X664972D01*
X690372Y35560D02*
X700532Y45720D01*
X669036Y57404D02*
Y81920D01*
X664600D02*
X669036D01*
Y57404D02*
X676148Y50292D01*
X691642Y143256D02*
Y219456D01*
X761492Y564388D02*
X772160Y553720D01*
X708406Y564388D02*
X761492D01*
X701040Y557022D02*
X708406Y564388D01*
X701040Y210058D02*
Y557022D01*
X695960Y204978D02*
X701040Y210058D01*
X695960Y147574D02*
Y204978D01*
X609600Y54864D02*
X624586Y39878D01*
X609600Y54864D02*
Y66920D01*
X705358Y512318D02*
X746760Y553720D01*
X705358Y205740D02*
Y512318D01*
X700532Y200914D02*
X705358Y205740D01*
X700532Y151892D02*
Y200914D01*
X601600Y47593D02*
X613633Y35560D01*
X601600Y47593D02*
Y66920D01*
X228200Y44050D02*
Y44196D01*
X409448Y111760D02*
Y119888D01*
X547370Y71882D02*
Y81920D01*
X556260Y173736D02*
X569600D01*
X248920Y327760D02*
X261720D01*
X299720Y365760D01*
X848360Y553720D02*
X851154Y550926D01*
X309480Y24130D02*
X325882D01*
X842880Y516490D02*
Y533800D01*
X822960Y553720D02*
X842880Y533800D01*
X362458Y188071D02*
Y197358D01*
Y188071D02*
X373888Y176641D01*
Y160020D02*
Y176641D01*
Y160020D02*
X381508Y152400D01*
X387740D01*
X368046Y136652D02*
X374904Y143510D01*
X401320D01*
X404740Y146930D01*
Y152400D01*
X45520Y391360D02*
X71120D01*
X32820Y378660D02*
X71120D01*
X20320Y391160D02*
X32820Y378660D01*
X45820Y289660D02*
X71120D01*
X248920Y276960D02*
X286920D01*
X299720Y264160D01*
X843360Y397910D02*
Y407924D01*
X850168Y414732D01*
Y429768D01*
X791718D02*
X850168D01*
X633600Y98930D02*
X641604Y106934D01*
X633600Y66920D02*
Y98930D01*
X543560Y89920D02*
X554600D01*
X537734Y84094D02*
X543560Y89920D01*
X537734Y65770D02*
Y84094D01*
Y65770D02*
X541020Y62484D01*
X557276D01*
X599440Y20320D01*
X547370Y81920D02*
X554600D01*
X585600Y51308D02*
Y66920D01*
Y51308D02*
X610108Y26800D01*
Y15240D02*
Y26800D01*
Y15240D02*
X619894Y5454D01*
X635374D01*
X650240Y20320D01*
X514980Y161920D02*
X554600D01*
X248920Y327760D02*
X261720D01*
X617600Y176920D02*
Y198120D01*
X602868Y212852D02*
X617600Y198120D01*
X570992Y212852D02*
X602868D01*
X534924Y248920D02*
X570992Y212852D01*
X452120Y248920D02*
X534924D01*
X593600Y163072D02*
Y176920D01*
X584708Y154180D02*
X593600Y163072D01*
X573532Y154180D02*
X584708D01*
X513716Y124840D02*
X518796Y129920D01*
X554600D01*
X641600Y176920D02*
Y210308D01*
X676402Y245110D01*
X671830Y259588D02*
X684784D01*
X633600Y221358D02*
X671830Y259588D01*
X633600Y176920D02*
Y221358D01*
X826262Y182626D02*
Y216662D01*
X828040Y218440D01*
X853440Y193294D02*
Y218440D01*
X852932Y192786D02*
X853440Y193294D01*
X852932Y136906D02*
Y192786D01*
X624078Y94742D02*
Y105410D01*
X635000Y116332D01*
X651002D01*
X653414Y113920D01*
X664600D01*
X585600Y176920D02*
Y189468D01*
X581282Y193786D02*
X585600Y189468D01*
X550910Y193786D02*
X581282D01*
X542544Y185420D02*
X550910Y193786D01*
X444754Y185420D02*
X542544D01*
X437134Y177800D02*
X444754Y185420D01*
X441452Y152400D02*
X447040Y157988D01*
X491998D01*
X506222Y172212D01*
X535940D01*
X546862Y183134D01*
X560086D01*
X566420Y189468D01*
X573552D01*
X577600Y185420D01*
Y176920D02*
Y185420D01*
X624586Y50292D02*
X657098D01*
X617600Y57278D02*
X624586Y50292D01*
X617600Y57278D02*
Y66920D01*
X625600D02*
Y79502D01*
X579882D02*
X625600D01*
X573532Y85852D02*
X579882Y79502D01*
X309480Y18650D02*
Y24130D01*
X848360Y553720D02*
X851154Y550926D01*
X54578Y454660D02*
X71120D01*
X44419Y464820D02*
X54578Y454660D01*
X44419Y464820D02*
Y468661D01*
X20320Y492760D02*
X44419Y468661D01*
X58928Y467360D02*
X71120D01*
X52070Y474218D02*
X58928Y467360D01*
X27686Y512826D02*
X60452Y480060D01*
X71120D01*
X190360Y95550D02*
Y148300D01*
Y95550D02*
X202090Y83820D01*
Y71120D02*
Y83820D01*
X248920Y416760D02*
X255216D01*
X259588Y421132D01*
Y427228D01*
X299720Y467360D01*
X237798Y429460D02*
X248920D01*
X230378Y436880D02*
X237798Y429460D01*
X230378Y436880D02*
Y492760D01*
X569600Y173736D02*
Y176920D01*
X404740Y111760D02*
X409448D01*
Y119888D02*
X423164Y133604D01*
Y248920D01*
X434594Y260350D01*
X450370D01*
X461800Y271780D01*
Y279400D01*
X431800D02*
Y293878D01*
X789940Y333756D02*
Y411480D01*
X800100Y421640D01*
X824620D01*
X248920Y365960D02*
X274320D01*
X287038Y378678D01*
Y403878D01*
X299720Y416560D01*
X248920Y340460D02*
X257656D01*
X299720Y382524D01*
Y391160D01*
X287120Y302360D02*
X299720Y314960D01*
X248920Y302360D02*
X287120D01*
X248920Y315060D02*
X274420D01*
X299720Y340360D01*
X248920Y378660D02*
X268424D01*
X280924Y391160D01*
Y423164D01*
X299720Y441960D01*
X58520Y276960D02*
X71120D01*
X20320Y238760D02*
X58520Y276960D01*
X71120Y416760D02*
X95250D01*
X795528Y490220D02*
X824620D01*
X782828Y502920D02*
X795528Y490220D01*
X782828Y502920D02*
Y564388D01*
X778510Y568706D02*
X782828Y564388D01*
X680720Y568706D02*
X778510D01*
X668274Y556260D02*
X680720Y568706D01*
X668274Y313182D02*
Y556260D01*
Y313182D02*
X679958Y301498D01*
Y268732D02*
Y301498D01*
X666750Y268732D02*
X679958D01*
X615696Y217678D02*
X666750Y268732D01*
X573024Y217678D02*
X615696D01*
X534670Y256032D02*
X573024Y217678D01*
X505008Y256032D02*
X534670D01*
X491800Y269240D02*
X505008Y256032D01*
X491800Y269240D02*
Y279400D01*
X430276Y185928D02*
X432562Y188214D01*
X649600Y66920D02*
Y71120D01*
X659384D02*
X659638Y70866D01*
X593600Y49415D02*
Y66920D01*
Y49415D02*
X612027Y30988D01*
X686562Y133858D02*
Y143888D01*
X684530Y145920D02*
X686562Y143888D01*
X664600Y145920D02*
X684530D01*
X695960Y245618D02*
Y315468D01*
X678180Y227838D02*
X695960Y245618D01*
X678180Y156460D02*
Y227838D01*
X675640Y153920D02*
X678180Y156460D01*
X664600Y153920D02*
X675640D01*
X543560Y223520D02*
X564658Y202422D01*
X597424D01*
X609600Y190246D01*
Y176920D02*
Y190246D01*
X540766Y198120D02*
X540782Y198104D01*
X591074D01*
X601600Y187578D01*
Y176920D02*
Y187578D01*
X641600Y83054D02*
X643128Y84582D01*
X641600Y66920D02*
Y83054D01*
X533146Y144272D02*
X534794Y145920D01*
X554600D01*
X525887Y153920D02*
X554600D01*
X452120Y147320D02*
X459994Y139446D01*
X544068Y137920D02*
X554600D01*
X541022Y134874D02*
X544068Y137920D01*
X490474Y134874D02*
X541022D01*
X452120Y96520D02*
X490474Y134874D01*
X71120Y353260D02*
X92510D01*
X95250Y350520D01*
X71120Y404060D02*
X90478D01*
X95250Y399288D01*
X533416Y60944D02*
X574040Y20320D01*
X533416Y60944D02*
Y87776D01*
X543560Y97920D01*
X554600D01*
X228200Y44050D02*
Y44196D01*
X538480Y105920D02*
X554600D01*
X523240Y90680D02*
X538480Y105920D01*
X523240Y45720D02*
Y90680D01*
Y45720D02*
X548640Y20320D01*
X309480Y8636D02*
Y18650D01*
X210820Y8636D02*
X309480D01*
X208200Y11256D02*
X210820Y8636D01*
X208200Y11256D02*
Y18650D01*
X45566Y315060D02*
X71120D01*
X45466Y314960D02*
X45566Y315060D01*
X20320Y314960D02*
X45466D01*
X45666Y365960D02*
X71120D01*
X45466Y365760D02*
X45666Y365960D01*
X20320Y365760D02*
X45466D01*
X274166Y289560D02*
X299720D01*
X274066Y289660D02*
X274166Y289560D01*
X248920Y289660D02*
X274066D01*
X838200Y109880D02*
Y162560D01*
X837540Y109220D02*
X838200Y109880D01*
X837540Y57040D02*
Y109220D01*
X441452Y66832D02*
Y152400D01*
Y66832D02*
X454560Y53724D01*
X437134Y65044D02*
Y177800D01*
Y65044D02*
X448060Y54117D01*
Y41990D02*
Y54117D01*
X454560Y41990D02*
Y53724D01*
X97790Y187960D02*
X101600D01*
X87376Y198374D02*
X97790Y187960D01*
X318262Y200914D02*
X342900Y176276D01*
X318262Y200914D02*
Y347218D01*
X299720Y365760D02*
X318262Y347218D01*
X617684Y229616D02*
X656800Y268732D01*
Y279400D01*
X581152Y229616D02*
X617684D01*
X419862Y305816D02*
Y319532D01*
Y305816D02*
X431800Y293878D01*
X773300Y61480D02*
Y67130D01*
X743250Y59136D02*
Y71500D01*
Y59136D02*
X754362Y48024D01*
X762811D01*
X770667Y55880D01*
X773300D01*
X762000Y61480D02*
Y67130D01*
X267580Y213360D02*
X292980Y238760D01*
X299720D01*
X135500Y71120D02*
X202090D01*
X771144Y29210D02*
X773684D01*
X784606Y40132D02*
X852170D01*
X773684Y29210D02*
X781304Y36830D01*
X784606Y40132D01*
X851154Y550926D02*
X882000Y520080D01*
X852170Y40132D02*
X882000Y69962D01*
Y520080D01*
X842880Y443738D02*
X848360D01*
X842880D02*
Y445370D01*
X863854Y388366D02*
Y428244D01*
X848360Y443738D02*
X863854Y428244D01*
X851154Y506692D02*
Y550926D01*
X822880Y514858D02*
Y516490D01*
Y514858D02*
X828040D01*
X836206Y506692D01*
X840924D01*
X840925Y506692D01*
X851154D01*
X806450Y469900D02*
X824620D01*
X773938Y437388D02*
X806450Y469900D01*
X724154Y437388D02*
X773938D01*
X566800Y279400D02*
Y291212D01*
X530860Y365760D02*
X602742Y437642D01*
X680974Y330454D02*
X695960Y315468D01*
X680974Y330454D02*
Y345694D01*
X557156Y300856D02*
X566800Y291212D01*
X530860Y307547D02*
Y365760D01*
Y307547D02*
X537550Y300856D01*
X557156D01*
X543063Y290068D02*
X551800Y281331D01*
Y279400D02*
Y281331D01*
X350266Y358394D02*
X367792Y375920D01*
X350266Y242316D02*
Y358394D01*
Y242316D02*
X373888Y218694D01*
Y185166D02*
Y218694D01*
Y185166D02*
X378206Y180848D01*
Y165100D02*
Y180848D01*
Y165100D02*
X380746Y162560D01*
X399660D01*
X404740Y167640D01*
Y172720D01*
X542103Y290068D02*
X543063D01*
X367792Y375920D02*
X456250D01*
X542103Y290068D01*
X387740Y172720D02*
Y178816D01*
X378206Y188350D02*
X387740Y178816D01*
X378206Y188350D02*
Y228092D01*
X364744Y241554D02*
X378206Y228092D01*
X364744Y241554D02*
Y337566D01*
X387604Y360426D01*
X536800Y279400D02*
Y281330D01*
X387604Y360426D02*
X457704D01*
X536800Y281330D01*
X404740Y132080D02*
Y137160D01*
X417606Y150026D01*
Y204948D01*
X398018Y224536D02*
X417606Y204948D01*
X398018Y224536D02*
Y318008D01*
X412242Y332232D01*
X433324D01*
X476800Y288756D01*
Y279400D02*
Y288756D01*
X419862Y319532D02*
X422148Y321818D01*
X406480Y199790D02*
Y206836D01*
X391160Y222156D02*
X406480Y206836D01*
X391160Y222156D02*
Y340868D01*
X399034Y348742D01*
X413004D01*
X680974Y345694D02*
X688086Y352806D01*
Y358140D01*
X823360Y395878D02*
Y397910D01*
X800354Y372872D02*
X823360Y395878D01*
X800354Y320146D02*
Y372872D01*
Y320146D02*
X828750Y291750D01*
X4184Y476624D02*
X20320Y492760D01*
X4184Y41536D02*
X20320Y25400D01*
X4184Y41536D02*
Y476624D01*
X430276Y105156D02*
Y185928D01*
X404740Y91440D02*
X416560D01*
X430276Y105156D01*
X208200Y44050D02*
X224536Y60386D01*
Y76200D01*
X232836Y84500D01*
X244176D01*
X285676Y43000D01*
X368480D01*
X370840Y40640D01*
X70104Y228092D02*
X86868D01*
X101600Y213360D01*
X506984Y153924D02*
X514980Y161920D01*
X459994Y139446D02*
X511413D01*
X525887Y153920D01*
X711200Y162560D02*
Y362204D01*
X794366Y445370D01*
X822880D01*
X736600Y162560D02*
Y190500D01*
X739140Y193040D01*
Y377190D01*
X791718Y429768D01*
D12*
X234250Y56000D02*
G03*
X230025Y45800I10200J-10200D01*
G01*
X230276Y52026D02*
G03*
X229729Y46796I2952J-2952D01*
G01*
X220498Y83992D02*
G03*
X226375Y98180I-14188J14188D01*
G01*
X139469Y54769D02*
G03*
X137825Y50800I3969J-3969D01*
G01*
X237297Y154237D02*
G03*
X241732Y152400I4435J4435D01*
G01*
X284761Y106680D02*
G03*
X277378Y103622I0J-10441D01*
G01*
Y109738D02*
G03*
X284761Y106680I7383J7383D01*
G01*
X289279D02*
G03*
X296662Y109738I0J10441D01*
G01*
Y103622D02*
G03*
X289279Y106680I-7383J-7383D01*
G01*
X310161D02*
G03*
X302778Y103622I0J-10441D01*
G01*
Y109738D02*
G03*
X310161Y106680I7383J7383D01*
G01*
X284761Y152400D02*
G03*
X277378Y149342I0J-10441D01*
G01*
Y155458D02*
G03*
X284761Y152400I7383J7383D01*
G01*
X263879D02*
G03*
X271262Y155458I0J10441D01*
G01*
Y149342D02*
G03*
X263879Y152400I-7383J-7383D01*
G01*
X289279D02*
G03*
X296662Y155458I0J10441D01*
G01*
Y149342D02*
G03*
X289279Y152400I-7383J-7383D01*
G01*
X24637Y50532D02*
G03*
X28955Y39117I14814J-920D01*
G01*
X408415Y57000D02*
G03*
X402995Y54755I0J-7665D01*
G01*
Y59245D02*
G03*
X408415Y57000I5420J5420D01*
G01*
X249383Y44196D02*
G03*
X254803Y46441I0J7665D01*
G01*
Y41951D02*
G03*
X249383Y44196I-5420J-5420D01*
G01*
X228200D02*
X257048D01*
X228250Y40344D02*
Y50250D01*
X228200Y18650D02*
Y44050D01*
X236360Y128048D02*
Y148300D01*
X228200Y119888D02*
X236360Y128048D01*
X228200Y99930D02*
Y119888D01*
X230276Y52026D02*
X234790Y56540D01*
Y71120D01*
X441000Y40674D02*
Y50500D01*
X436377Y57000D02*
X441560Y51817D01*
X400750Y57000D02*
X436377D01*
X20320Y47752D02*
X30480Y37592D01*
X132452D01*
X135500Y40640D01*
Y50800D01*
X240460Y152400D02*
X274320D01*
X299720D01*
X363220Y106680D02*
X378460Y91440D01*
X387740D01*
X299720Y106680D02*
X363220D01*
X274320D02*
X286512D01*
X299720D01*
X135500Y50800D02*
X143628Y58928D01*
X212852Y61722D02*
Y76346D01*
X228200Y91694D01*
Y99930D01*
X143628Y58928D02*
X192532D01*
X210058D02*
X212852Y61722D01*
X192532Y58928D02*
X210058D01*
D13*
X172903Y557300D02*
D03*
D14*
X144653Y558800D02*
D03*
X200253D02*
D03*
D15*
X485560Y40740D02*
D03*
X423560D02*
D03*
D16*
X467560Y41990D02*
D03*
X461060D02*
D03*
X454560D02*
D03*
X448060D02*
D03*
X441560D02*
D03*
D17*
X466560Y15240D02*
D03*
X442560D02*
D03*
D18*
X492560D02*
D03*
X416560D02*
D03*
D19*
X190360Y148300D02*
D03*
X213360D02*
D03*
X236360D02*
D03*
D20*
X213360Y207300D02*
D03*
D21*
X248920Y505460D02*
D03*
Y492760D02*
D03*
Y480060D02*
D03*
Y467360D02*
D03*
Y454660D02*
D03*
Y441960D02*
D03*
Y429460D02*
D03*
Y353260D02*
D03*
Y365960D02*
D03*
Y378660D02*
D03*
Y391360D02*
D03*
Y404060D02*
D03*
Y416760D02*
D03*
Y327760D02*
D03*
Y315060D02*
D03*
Y302360D02*
D03*
Y289660D02*
D03*
Y276960D02*
D03*
Y264260D02*
D03*
Y340460D02*
D03*
X71120D02*
D03*
Y264260D02*
D03*
Y276960D02*
D03*
Y289660D02*
D03*
Y302360D02*
D03*
Y315060D02*
D03*
Y327760D02*
D03*
Y416760D02*
D03*
Y404060D02*
D03*
Y391360D02*
D03*
Y378660D02*
D03*
Y365960D02*
D03*
Y353260D02*
D03*
Y429460D02*
D03*
Y505460D02*
D03*
Y441960D02*
D03*
Y454660D02*
D03*
Y467360D02*
D03*
Y480060D02*
D03*
Y492760D02*
D03*
D22*
X198120Y518160D02*
D03*
X185420D02*
D03*
X172720D02*
D03*
X160020D02*
D03*
X147320D02*
D03*
X134620D02*
D03*
X121920D02*
D03*
D23*
X118500Y71120D02*
D03*
X135500D02*
D03*
X118500Y50800D02*
D03*
X135500D02*
D03*
X841620Y421640D02*
D03*
X824620D02*
D03*
X387740Y91440D02*
D03*
X404740D02*
D03*
X387740Y111760D02*
D03*
X404740D02*
D03*
X387740Y132080D02*
D03*
X404740D02*
D03*
X841620Y490220D02*
D03*
X824620D02*
D03*
X387740Y152400D02*
D03*
X404740D02*
D03*
Y172720D02*
D03*
X387740D02*
D03*
X841620Y469900D02*
D03*
X824620D02*
D03*
X267580Y213360D02*
D03*
X250580D02*
D03*
D24*
X234790Y71120D02*
D03*
X202090D02*
D03*
D25*
X370840Y24140D02*
D03*
Y40640D02*
D03*
D26*
X118100Y213360D02*
D03*
X101600D02*
D03*
X118100Y187960D02*
D03*
X101600D02*
D03*
D27*
X208200Y99930D02*
D03*
X228200D02*
D03*
X208200Y44050D02*
D03*
X228200D02*
D03*
X208200Y18650D02*
D03*
X228200D02*
D03*
X289480D02*
D03*
X309480D02*
D03*
X822880Y516490D02*
D03*
X842880D02*
D03*
X406480Y199790D02*
D03*
X386480D02*
D03*
X822880Y445370D02*
D03*
X842880D02*
D03*
X843360Y397910D02*
D03*
X823360D02*
D03*
D28*
X762000Y55880D02*
D03*
X773300D02*
D03*
X762000Y67130D02*
D03*
X773300D02*
D03*
D29*
X762000Y61480D02*
D03*
X773300D02*
D03*
D30*
X828040Y75040D02*
D03*
X837540Y57040D02*
D03*
X818540D02*
D03*
D31*
X554600Y161920D02*
D03*
Y153920D02*
D03*
Y145920D02*
D03*
Y137920D02*
D03*
Y129920D02*
D03*
Y121920D02*
D03*
Y113920D02*
D03*
Y105920D02*
D03*
Y97920D02*
D03*
Y89920D02*
D03*
Y81920D02*
D03*
X664600D02*
D03*
Y89920D02*
D03*
Y97920D02*
D03*
Y105920D02*
D03*
Y113920D02*
D03*
Y121920D02*
D03*
Y129920D02*
D03*
Y137920D02*
D03*
Y145920D02*
D03*
Y153920D02*
D03*
Y161920D02*
D03*
D32*
X569600Y66920D02*
D03*
X577600D02*
D03*
X585600D02*
D03*
X593600D02*
D03*
X601600D02*
D03*
X609600D02*
D03*
X617600D02*
D03*
X625600D02*
D03*
X633600D02*
D03*
X641600D02*
D03*
X649600D02*
D03*
Y176920D02*
D03*
X641600D02*
D03*
X633600D02*
D03*
X625600D02*
D03*
X617600D02*
D03*
X609600D02*
D03*
X601600D02*
D03*
X593600D02*
D03*
X585600D02*
D03*
X577600D02*
D03*
X569600D02*
D03*
D33*
X25400Y213360D02*
D03*
Y238760D02*
D03*
Y264160D02*
D03*
Y289560D02*
D03*
Y314960D02*
D03*
Y340360D02*
D03*
Y365760D02*
D03*
Y391160D02*
D03*
Y416560D02*
D03*
Y441960D02*
D03*
Y467360D02*
D03*
X863600Y162560D02*
D03*
X838200D02*
D03*
X812800D02*
D03*
X787400D02*
D03*
X736600D02*
D03*
X762000D02*
D03*
X574040Y20320D02*
D03*
X599440D02*
D03*
X624840D02*
D03*
X650240D02*
D03*
X675640D02*
D03*
X452120Y223520D02*
D03*
Y198120D02*
D03*
Y172720D02*
D03*
Y147320D02*
D03*
Y121920D02*
D03*
Y96520D02*
D03*
Y71120D02*
D03*
X20320Y50800D02*
D03*
Y76200D02*
D03*
Y101600D02*
D03*
Y127000D02*
D03*
Y152400D02*
D03*
X299720Y213360D02*
D03*
Y238760D02*
D03*
Y264160D02*
D03*
Y289560D02*
D03*
Y314960D02*
D03*
Y340360D02*
D03*
Y365760D02*
D03*
Y391160D02*
D03*
Y416560D02*
D03*
Y441960D02*
D03*
Y467360D02*
D03*
X853440Y218440D02*
D03*
X828040D02*
D03*
X802640D02*
D03*
X777240D02*
D03*
X822960Y553720D02*
D03*
X797560D02*
D03*
X772160D02*
D03*
X746760D02*
D03*
X721360D02*
D03*
X299720Y152400D02*
D03*
Y106680D02*
D03*
D34*
X25400Y492760D02*
D03*
X452120Y248920D02*
D03*
X20320Y25400D02*
D03*
X299720Y492760D02*
D03*
D35*
X863600Y360680D02*
D03*
D36*
X812800D02*
D03*
D37*
X711200Y162560D02*
D03*
X548640Y20320D02*
D03*
X751840Y218440D02*
D03*
X848360Y553720D02*
D03*
X274320Y152400D02*
D03*
Y106680D02*
D03*
D38*
X431800Y279400D02*
D03*
X446800D02*
D03*
X461800D02*
D03*
X491800D02*
D03*
X476800D02*
D03*
X536800D02*
D03*
X551800D02*
D03*
X521800D02*
D03*
X506800D02*
D03*
X626800D02*
D03*
X641800D02*
D03*
X671800D02*
D03*
X656800D02*
D03*
X596800D02*
D03*
X611800D02*
D03*
X581800D02*
D03*
X566800D02*
D03*
D39*
X378800Y297400D02*
D03*
X724800D02*
D03*
D40*
X686250Y80500D02*
D03*
X698500Y106680D02*
D03*
X743076Y71500D02*
D03*
X828750Y291750D02*
D03*
X45720Y302260D02*
D03*
X43180Y281940D02*
D03*
X685800Y116840D02*
D03*
X676148Y50292D02*
D03*
X721360Y78740D02*
D03*
X596646Y125730D02*
D03*
X362458Y197358D02*
D03*
X368046Y136652D02*
D03*
X45520Y391360D02*
D03*
X541528Y311912D02*
D03*
X659638Y70866D02*
D03*
X641604Y106934D02*
D03*
X547370Y71882D02*
D03*
X342900Y176276D02*
D03*
X573532Y154180D02*
D03*
X513716Y124840D02*
D03*
X676402Y245110D02*
D03*
X684784Y259588D02*
D03*
X691642Y219456D02*
D03*
X826262Y182626D02*
D03*
X852932Y136906D02*
D03*
X624078Y94742D02*
D03*
X657098Y50292D02*
D03*
X573532Y85852D02*
D03*
X325882Y24130D02*
D03*
X186690Y247650D02*
D03*
X52070Y474218D02*
D03*
X27686Y512826D02*
D03*
X230378Y492760D02*
D03*
X556260Y173736D02*
D03*
X364490Y163322D02*
D03*
X615188Y146176D02*
D03*
X789940Y333756D02*
D03*
X95250Y416760D02*
D03*
X432562Y188214D02*
D03*
X774700Y175260D02*
D03*
X642366Y125730D02*
D03*
X686562Y133858D02*
D03*
X543560Y223520D02*
D03*
X540766Y198120D02*
D03*
X643128Y84582D02*
D03*
X533146Y144272D02*
D03*
X95250Y350520D02*
D03*
Y399288D02*
D03*
X257048Y44196D02*
D03*
X400750Y57000D02*
D03*
X87376Y198374D02*
D03*
X581152Y229616D02*
D03*
X200660Y118110D02*
D03*
X771144Y29210D02*
D03*
X863854Y388366D02*
D03*
X602742Y437642D02*
D03*
X724154Y437388D02*
D03*
X422148Y321818D02*
D03*
X413004Y348742D02*
D03*
X776224Y345186D02*
D03*
X688086Y358140D02*
D03*
X70104Y228092D02*
D03*
X506984Y153924D02*
D03*
M02*
